<svg xmlns="http://www.w3.org/2000/svg" xmlns:xlink="http://www.w3.org/1999/xlink" xmlns:lucid="lucid" width="1465.9" height="1000.64"><g transform="translate(-115 0.016000000000005343)" lucid:page-tab-id="khpKR4Uk-mh5"><path d="M0 0h1760v1360H0z" fill="#fff"/><path d="M804 59.35l-.7 1.68-21.47-25.77-1.83 1.56-1.83-1.56-21.48 25.77-.7-1.68-14.22 34.13 4.44 1.87 9.78-23.5 9.78 23.5 4.44-1.87-11.47-27.46L780 40.54l21.25 25.48-11.47 27.46 4.44 1.87 9.78-23.5 9.78 23.5 4.44-1.87L804 59.35z" stroke="#000" stroke-opacity="0" stroke-width="3" fill="#7fba00"/><path d="M823.2 94.42c0 3.98-3.23 7.2-7.2 7.2s-7.2-3.22-7.2-7.2 3.23-7.2 7.2-7.2 7.2 3.22 7.2 7.2zM799.2 94.42c0 3.98-3.23 7.2-7.2 7.2s-7.2-3.22-7.2-7.2 3.23-7.2 7.2-7.2 7.2 3.22 7.2 7.2z" stroke="#000" stroke-opacity="0" stroke-width="3" fill="#3999c6"/><path d="M792 36.8c0 6.62-5.38 12-12 12s-12-5.38-12-12c0-6.63 5.38-12 12-12s12 5.37 12 12z" stroke="#000" stroke-opacity="0" stroke-width="3" fill="#804998"/><path d="M765.6 65.6c0 5.3-4.3 9.6-9.6 9.6s-9.6-4.3-9.6-9.6 4.3-9.6 9.6-9.6 9.6 4.3 9.6 9.6zM813.6 65.6c0 5.3-4.3 9.6-9.6 9.6s-9.6-4.3-9.6-9.6 4.3-9.6 9.6-9.6 9.6 4.3 9.6 9.6z" stroke="#000" stroke-opacity="0" stroke-width="3" fill="#0072c6"/><path d="M775.2 94.42c0 3.98-3.23 7.2-7.2 7.2s-7.2-3.22-7.2-7.2 3.23-7.2 7.2-7.2 7.2 3.22 7.2 7.2zM751.2 94.42c0 3.98-3.23 7.2-7.2 7.2s-7.2-3.22-7.2-7.2 3.23-7.2 7.2-7.2 7.2 3.22 7.2 7.2z" stroke="#000" stroke-opacity="0" stroke-width="3" fill="#3999c6"/><path d="M742.8 117c-.6-.1-1.08-.2-1.68-.5l-16.32-9.6c-3-1.74-4.68-4.65-4.8-8.15V38.22c0-3.5 1.8-6.4 4.8-8.15l16.32-9.6c1.68-.97 3.84-.4 4.8 1.26.96 1.65.36 3.78-1.2 4.75l-16.32 9.6c-.72.6-1.08 1.27-1.2 2.14v60.53c.12.88.48 1.56 1.2 2.14l16.32 9.6c1.68.96 2.16 3.2 1.2 4.84-.72.97-1.8 1.55-3.12 1.65zm74.4-97.02c.6.1 1.08.2 1.68.5l16.32 9.6c3 1.74 4.68 4.65 4.8 8.14v60.53c0 3.5-1.8 6.4-4.8 8.15l-16.32 9.6c-1.68.98-3.84.4-4.8-1.25s-.36-3.8 1.2-4.76l16.32-9.6c.72-.6 1.08-1.27 1.2-2.15V38.22c-.12-.87-.48-1.55-1.2-2.13l-16.32-9.62c-1.68-.97-2.16-3.2-1.2-4.85.84-.97 1.8-1.55 3.12-1.65z" stroke="#000" stroke-opacity="0" stroke-width="3" fill="#7a7a7a"/><path d="M723.4 34.54l19.2-12.07 75.33-.37 18.52 11.7.22 66.35-19.43 14.76h-74.76l-19.42-13.82z" stroke="#000" stroke-opacity="0" stroke-width="0" fill-opacity="0"/><use xlink:href="#a" transform="matrix(1,0,0,1,690,125.992) translate(41.55 14.4)"/><use xlink:href="#b" transform="matrix(1,0,0,1,690,125.992) translate(100.5 14.4)"/><path d="M804 294.36l-.7 1.68-21.47-25.78-1.83 1.57-1.83-1.57-21.48 25.78-.7-1.68-14.22 34.13 4.44 1.85 9.78-23.5 9.78 23.5 4.44-1.86-11.47-27.47L780 275.55l21.25 25.48-11.47 27.46 4.44 1.85 9.78-23.5 9.78 23.5 4.44-1.86L804 294.35z" stroke="#000" stroke-opacity="0" stroke-width="3" fill="#7fba00"/><path d="M823.2 329.43c0 3.98-3.23 7.2-7.2 7.2s-7.2-3.22-7.2-7.2 3.23-7.2 7.2-7.2 7.2 3.22 7.2 7.2zM799.2 329.43c0 3.98-3.23 7.2-7.2 7.2s-7.2-3.22-7.2-7.2 3.23-7.2 7.2-7.2 7.2 3.22 7.2 7.2z" stroke="#000" stroke-opacity="0" stroke-width="3" fill="#3999c6"/><path d="M792 271.8c0 6.63-5.38 12-12 12s-12-5.37-12-12 5.38-12 12-12 12 5.37 12 12z" stroke="#000" stroke-opacity="0" stroke-width="3" fill="#804998"/><path d="M765.6 300.6c0 5.32-4.3 9.62-9.6 9.62s-9.6-4.3-9.6-9.6 4.3-9.6 9.6-9.6 9.6 4.3 9.6 9.6zM813.6 300.6c0 5.32-4.3 9.62-9.6 9.62s-9.6-4.3-9.6-9.6 4.3-9.6 9.6-9.6 9.6 4.3 9.6 9.6z" stroke="#000" stroke-opacity="0" stroke-width="3" fill="#0072c6"/><path d="M775.2 329.43c0 3.98-3.23 7.2-7.2 7.2s-7.2-3.22-7.2-7.2 3.23-7.2 7.2-7.2 7.2 3.22 7.2 7.2zM751.2 329.43c0 3.98-3.23 7.2-7.2 7.2s-7.2-3.22-7.2-7.2 3.23-7.2 7.2-7.2 7.2 3.22 7.2 7.2z" stroke="#000" stroke-opacity="0" stroke-width="3" fill="#3999c6"/><path d="M742.8 352c-.6-.1-1.08-.2-1.68-.5l-16.32-9.6c-3-1.73-4.68-4.65-4.8-8.14v-60.53c0-3.5 1.8-6.4 4.8-8.15l16.32-9.6c1.68-.97 3.84-.4 4.8 1.26.96 1.65.36 3.78-1.2 4.75l-16.32 9.6c-.72.58-1.08 1.26-1.2 2.13v60.53c.12.88.48 1.55 1.2 2.14l16.32 9.6c1.68.97 2.16 3.2 1.2 4.85-.72.97-1.8 1.55-3.12 1.65zm74.4-97c.6.1 1.08.2 1.68.48l16.32 9.6c3 1.75 4.68 4.66 4.8 8.15v60.53c0 3.5-1.8 6.4-4.8 8.15l-16.32 9.6c-1.68 1-3.84.4-4.8-1.25s-.36-3.78 1.2-4.75l16.32-9.6c.72-.6 1.08-1.26 1.2-2.14v-60.53c-.12-.87-.48-1.55-1.2-2.13l-16.32-9.6c-1.68-.98-2.16-3.2-1.2-4.86.84-.97 1.8-1.55 3.12-1.65z" stroke="#000" stroke-opacity="0" stroke-width="3" fill="#7a7a7a"/><path d="M723.4 269.54l19.2-12.06 75.33-.37 18.52 11.7.22 66.36-19.43 14.76h-74.76l-19.42-13.83z" stroke="#000" stroke-opacity="0" stroke-width="0" fill-opacity="0"/><use xlink:href="#c" transform="matrix(1,0,0,1,690,361) translate(56.525 14.4)"/><path d="M219 749.35l-.7 1.68-21.47-25.77-1.83 1.56-1.83-1.56-21.48 25.77-.7-1.68-14.22 34.13 4.44 1.87 9.78-23.5 9.78 23.5 4.44-1.87-11.47-27.46L195 730.54l21.25 25.48-11.47 27.46 4.44 1.87 9.78-23.5 9.78 23.5 4.44-1.87L219 749.35z" stroke="#000" stroke-opacity="0" stroke-width="3" fill="#7fba00"/><path d="M238.2 784.42c0 3.98-3.23 7.2-7.2 7.2s-7.2-3.22-7.2-7.2 3.23-7.2 7.2-7.2 7.2 3.22 7.2 7.2zM214.2 784.42c0 3.98-3.23 7.2-7.2 7.2s-7.2-3.22-7.2-7.2 3.23-7.2 7.2-7.2 7.2 3.22 7.2 7.2z" stroke="#000" stroke-opacity="0" stroke-width="3" fill="#3999c6"/><path d="M207 726.8c0 6.62-5.38 12-12 12s-12-5.38-12-12c0-6.63 5.38-12 12-12s12 5.37 12 12z" stroke="#000" stroke-opacity="0" stroke-width="3" fill="#804998"/><path d="M180.6 755.6c0 5.3-4.3 9.6-9.6 9.6s-9.6-4.3-9.6-9.6 4.3-9.6 9.6-9.6 9.6 4.3 9.6 9.6zM228.6 755.6c0 5.3-4.3 9.6-9.6 9.6s-9.6-4.3-9.6-9.6 4.3-9.6 9.6-9.6 9.6 4.3 9.6 9.6z" stroke="#000" stroke-opacity="0" stroke-width="3" fill="#0072c6"/><path d="M190.2 784.42c0 3.98-3.23 7.2-7.2 7.2s-7.2-3.22-7.2-7.2 3.23-7.2 7.2-7.2 7.2 3.22 7.2 7.2zM166.2 784.42c0 3.98-3.23 7.2-7.2 7.2s-7.2-3.22-7.2-7.2 3.23-7.2 7.2-7.2 7.2 3.22 7.2 7.2z" stroke="#000" stroke-opacity="0" stroke-width="3" fill="#3999c6"/><path d="M157.8 807c-.6-.1-1.08-.2-1.68-.5l-16.32-9.6c-3-1.74-4.68-4.65-4.8-8.15v-60.53c0-3.5 1.8-6.4 4.8-8.15l16.32-9.6c1.68-.97 3.84-.4 4.8 1.26.96 1.65.36 3.78-1.2 4.75l-16.32 9.6c-.72.6-1.08 1.27-1.2 2.14v60.53c.12.88.48 1.56 1.2 2.14l16.32 9.6c1.68.96 2.16 3.2 1.2 4.84-.72.97-1.8 1.55-3.12 1.65zm74.4-97.02c.6.1 1.08.2 1.68.5l16.32 9.6c3 1.74 4.68 4.65 4.8 8.14v60.53c0 3.5-1.8 6.4-4.8 8.15l-16.32 9.6c-1.68.98-3.84.4-4.8-1.25s-.36-3.8 1.2-4.76l16.32-9.6c.72-.6 1.08-1.27 1.2-2.15v-60.53c-.12-.87-.48-1.55-1.2-2.13l-16.32-9.62c-1.68-.97-2.16-3.2-1.2-4.85.84-.97 1.8-1.55 3.12-1.65z" stroke="#000" stroke-opacity="0" stroke-width="3" fill="#7a7a7a"/><path d="M138.4 724.54l19.2-12.07 75.33-.37 18.52 11.7.22 66.35-19.43 14.76h-74.76l-19.42-13.82z" stroke="#000" stroke-opacity="0" stroke-width="0" fill-opacity="0"/><use xlink:href="#d" transform="matrix(1,0,0,1,105,815.992) translate(37.55 14.4)"/><path d="M384 749.35l-.7 1.68-21.47-25.77-1.83 1.56-1.83-1.56-21.48 25.77-.7-1.68-14.22 34.13 4.44 1.87 9.78-23.5 9.78 23.5 4.44-1.87-11.47-27.46L360 730.54l21.25 25.48-11.47 27.46 4.44 1.87 9.78-23.5 9.78 23.5 4.44-1.87L384 749.35z" stroke="#000" stroke-opacity="0" stroke-width="3" fill="#7fba00"/><path d="M403.2 784.42c0 3.98-3.23 7.2-7.2 7.2s-7.2-3.22-7.2-7.2 3.23-7.2 7.2-7.2 7.2 3.22 7.2 7.2zM379.2 784.42c0 3.98-3.23 7.2-7.2 7.2s-7.2-3.22-7.2-7.2 3.23-7.2 7.2-7.2 7.2 3.22 7.2 7.2z" stroke="#000" stroke-opacity="0" stroke-width="3" fill="#3999c6"/><path d="M372 726.8c0 6.62-5.38 12-12 12s-12-5.38-12-12c0-6.63 5.38-12 12-12s12 5.37 12 12z" stroke="#000" stroke-opacity="0" stroke-width="3" fill="#804998"/><path d="M345.6 755.6c0 5.3-4.3 9.6-9.6 9.6s-9.6-4.3-9.6-9.6 4.3-9.6 9.6-9.6 9.6 4.3 9.6 9.6zM393.6 755.6c0 5.3-4.3 9.6-9.6 9.6s-9.6-4.3-9.6-9.6 4.3-9.6 9.6-9.6 9.6 4.3 9.6 9.6z" stroke="#000" stroke-opacity="0" stroke-width="3" fill="#0072c6"/><path d="M355.2 784.42c0 3.98-3.23 7.2-7.2 7.2s-7.2-3.22-7.2-7.2 3.23-7.2 7.2-7.2 7.2 3.22 7.2 7.2zM331.2 784.42c0 3.98-3.23 7.2-7.2 7.2s-7.2-3.22-7.2-7.2 3.23-7.2 7.2-7.2 7.2 3.22 7.2 7.2z" stroke="#000" stroke-opacity="0" stroke-width="3" fill="#3999c6"/><path d="M322.8 807c-.6-.1-1.08-.2-1.68-.5l-16.32-9.6c-3-1.74-4.68-4.65-4.8-8.15v-60.53c0-3.5 1.8-6.4 4.8-8.15l16.32-9.6c1.68-.97 3.84-.4 4.8 1.26.96 1.65.36 3.78-1.2 4.75l-16.32 9.6c-.72.6-1.08 1.27-1.2 2.14v60.53c.12.88.48 1.56 1.2 2.14l16.32 9.6c1.68.96 2.16 3.2 1.2 4.84-.72.97-1.8 1.55-3.12 1.65zm74.4-97.02c.6.1 1.08.2 1.68.5l16.32 9.6c3 1.74 4.68 4.65 4.8 8.14v60.53c0 3.5-1.8 6.4-4.8 8.15l-16.32 9.6c-1.68.98-3.84.4-4.8-1.25s-.36-3.8 1.2-4.76l16.32-9.6c.72-.6 1.08-1.27 1.2-2.15v-60.53c-.12-.87-.48-1.55-1.2-2.13l-16.32-9.62c-1.68-.97-2.16-3.2-1.2-4.85.84-.97 1.8-1.55 3.12-1.65z" stroke="#000" stroke-opacity="0" stroke-width="3" fill="#7a7a7a"/><path d="M303.4 724.54l19.2-12.07 75.33-.37 18.52 11.7.22 66.35-19.43 14.76h-74.76l-19.42-13.82z" stroke="#000" stroke-opacity="0" stroke-width="0" fill-opacity="0"/><use xlink:href="#e" transform="matrix(1,0,0,1,270,815.992) translate(41.074999999999996 14.4)"/><path d="M780 169v60.5M780 169.03V168" stroke="#5e5e5e" stroke-width="2" fill="none"/><path d="M780 244.76l-4.64-14.26h9.28z" stroke="#5e5e5e" stroke-width="2" fill="#5e5e5e"/><path d="M688.02 670H201M688 670H689M201.03 670H200M436.14 626v43M436.14 626.03V625M436.14 668.97V670M689.02 671v40.28M689.02 671.03V670" stroke="#5e5e5e" stroke-width="2" fill="none"/><path d="M690.02 712.28h-2v-1.02h2" fill="#5e5e5e"/><path d="M195 845.38V879M195 845.4v-1.02M195 878.97V880M211 880h-15" stroke="#5e5e5e" stroke-width="2" fill="none"/><path d="M211.62 880.35l-.45.65h-.2v-2h2.1" fill="#5e5e5e"/><path d="M196.03 880H195" stroke="#5e5e5e" stroke-width="2" fill="none"/><path d="M454 519.37l-.7 1.68-21.47-25.78-1.83 1.56-1.83-1.56-21.48 25.78-.7-1.68-14.22 34.13 4.44 1.86 9.78-23.5 9.78 23.5 4.44-1.86-11.47-27.46L430 500.56l21.25 25.48-11.47 27.46 4.44 1.86 9.78-23.5 9.78 23.5 4.44-1.86L454 519.37z" stroke="#000" stroke-opacity="0" stroke-width="3" fill="#7fba00"/><path d="M473.2 554.44c0 3.97-3.23 7.2-7.2 7.2s-7.2-3.23-7.2-7.2c0-3.98 3.23-7.2 7.2-7.2s7.2 3.22 7.2 7.2zM449.2 554.44c0 3.97-3.23 7.2-7.2 7.2s-7.2-3.23-7.2-7.2c0-3.98 3.23-7.2 7.2-7.2s7.2 3.22 7.2 7.2z" stroke="#000" stroke-opacity="0" stroke-width="3" fill="#3999c6"/><path d="M442 496.8c0 6.64-5.38 12-12 12s-12-5.36-12-12c0-6.62 5.38-12 12-12s12 5.38 12 12z" stroke="#000" stroke-opacity="0" stroke-width="3" fill="#804998"/><path d="M415.6 525.62c0 5.3-4.3 9.6-9.6 9.6s-9.6-4.3-9.6-9.6 4.3-9.6 9.6-9.6 9.6 4.3 9.6 9.6zM463.6 525.62c0 5.3-4.3 9.6-9.6 9.6s-9.6-4.3-9.6-9.6 4.3-9.6 9.6-9.6 9.6 4.3 9.6 9.6z" stroke="#000" stroke-opacity="0" stroke-width="3" fill="#0072c6"/><path d="M425.2 554.44c0 3.97-3.23 7.2-7.2 7.2s-7.2-3.23-7.2-7.2c0-3.98 3.23-7.2 7.2-7.2s7.2 3.22 7.2 7.2zM401.2 554.44c0 3.97-3.23 7.2-7.2 7.2s-7.2-3.23-7.2-7.2c0-3.98 3.23-7.2 7.2-7.2s7.2 3.22 7.2 7.2z" stroke="#000" stroke-opacity="0" stroke-width="3" fill="#3999c6"/><path d="M392.8 577c-.6-.1-1.08-.2-1.68-.48l-16.32-9.6c-3-1.75-4.68-4.66-4.8-8.15v-60.53c0-3.5 1.8-6.4 4.8-8.15l16.32-9.6c1.68-1 3.84-.4 4.8 1.25s.36 3.78-1.2 4.75l-16.32 9.6c-.72.6-1.08 1.26-1.2 2.14v60.53c.12.87.48 1.55 1.2 2.13l16.32 9.6c1.68.98 2.16 3.2 1.2 4.86-.72.97-1.8 1.55-3.12 1.65zm74.4-97c.6.1 1.08.2 1.68.5l16.32 9.6c3 1.73 4.68 4.65 4.8 8.14v60.53c0 3.5-1.8 6.4-4.8 8.15l-16.32 9.6c-1.68.97-3.84.4-4.8-1.26-.96-1.65-.36-3.78 1.2-4.75l16.32-9.6c.72-.58 1.08-1.26 1.2-2.13v-60.53c-.12-.88-.48-1.55-1.2-2.14l-16.32-9.6c-1.68-.97-2.16-3.2-1.2-4.85.84-.97 1.8-1.55 3.12-1.65z" stroke="#000" stroke-opacity="0" stroke-width="3" fill="#7a7a7a"/><path d="M373.4 494.55l19.2-12.06 75.33-.4 18.52 11.7.22 66.37-19.43 14.75h-74.76l-19.42-13.82z" stroke="#000" stroke-opacity="0" stroke-width="0" fill-opacity="0"/><use xlink:href="#f" transform="matrix(1,0,0,1,340,586.008) translate(47.05 14.4)"/><path d="M1194 524.37l-.7 1.68-21.47-25.78-1.83 1.56-1.83-1.56-21.48 25.78-.7-1.68-14.22 34.13 4.44 1.86 9.78-23.5 9.78 23.5 4.44-1.86-11.47-27.46 21.25-25.48 21.25 25.48-11.47 27.46 4.44 1.86 9.78-23.5 9.78 23.5 4.44-1.86-14.22-34.13z" stroke="#000" stroke-opacity="0" stroke-width="3" fill="#7fba00"/><path d="M1213.2 559.44c0 3.97-3.23 7.2-7.2 7.2s-7.2-3.23-7.2-7.2c0-3.98 3.23-7.2 7.2-7.2s7.2 3.22 7.2 7.2zM1189.2 559.44c0 3.97-3.23 7.2-7.2 7.2s-7.2-3.23-7.2-7.2c0-3.98 3.23-7.2 7.2-7.2s7.2 3.22 7.2 7.2z" stroke="#000" stroke-opacity="0" stroke-width="3" fill="#3999c6"/><path d="M1182 501.8c0 6.64-5.38 12-12 12s-12-5.36-12-12c0-6.62 5.38-12 12-12s12 5.38 12 12z" stroke="#000" stroke-opacity="0" stroke-width="3" fill="#804998"/><path d="M1155.6 530.62c0 5.3-4.3 9.6-9.6 9.6s-9.6-4.3-9.6-9.6 4.3-9.6 9.6-9.6 9.6 4.3 9.6 9.6zM1203.6 530.62c0 5.3-4.3 9.6-9.6 9.6s-9.6-4.3-9.6-9.6 4.3-9.6 9.6-9.6 9.6 4.3 9.6 9.6z" stroke="#000" stroke-opacity="0" stroke-width="3" fill="#0072c6"/><path d="M1165.2 559.44c0 3.97-3.23 7.2-7.2 7.2s-7.2-3.23-7.2-7.2c0-3.98 3.23-7.2 7.2-7.2s7.2 3.22 7.2 7.2zM1141.2 559.44c0 3.97-3.23 7.2-7.2 7.2s-7.2-3.23-7.2-7.2c0-3.98 3.23-7.2 7.2-7.2s7.2 3.22 7.2 7.2z" stroke="#000" stroke-opacity="0" stroke-width="3" fill="#3999c6"/><path d="M1132.8 582c-.6-.1-1.08-.2-1.68-.48l-16.32-9.6c-3-1.75-4.68-4.66-4.8-8.15v-60.53c0-3.5 1.8-6.4 4.8-8.15l16.32-9.6c1.68-1 3.84-.4 4.8 1.25s.36 3.78-1.2 4.75l-16.32 9.6c-.72.6-1.08 1.26-1.2 2.14v60.53c.12.87.48 1.55 1.2 2.13l16.32 9.6c1.68.98 2.16 3.2 1.2 4.86-.72.97-1.8 1.55-3.12 1.65zm74.4-97c.6.1 1.08.2 1.68.5l16.32 9.6c3 1.73 4.68 4.65 4.8 8.14v60.53c0 3.5-1.8 6.4-4.8 8.15l-16.32 9.6c-1.68.97-3.84.4-4.8-1.26-.96-1.65-.36-3.78 1.2-4.75l16.32-9.6c.72-.58 1.08-1.26 1.2-2.13v-60.53c-.12-.88-.48-1.55-1.2-2.14l-16.32-9.6c-1.68-.97-2.16-3.2-1.2-4.85.84-.97 1.8-1.55 3.12-1.65z" stroke="#000" stroke-opacity="0" stroke-width="3" fill="#7a7a7a"/><path d="M1113.4 499.55l19.2-12.06 75.33-.4 18.52 11.7.22 66.37-19.43 14.75h-74.76l-19.42-13.82z" stroke="#000" stroke-opacity="0" stroke-width="0" fill-opacity="0"/><use xlink:href="#g" transform="matrix(1,0,0,1,1080,591.008) translate(27.599999999999994 14.4)"/><path d="M1166.55 430H601M1166.52 430h1.03M601.03 430H600M780 381v48M780 381.03V380M780 428.97V430M430 481.3V436c0-3.3 2.7-6 6-6h163" stroke="#5e5e5e" stroke-width="2" fill="none"/><path d="M431 482.3h-2v-1.02h2" fill="#5e5e5e"/><path d="M598.97 430H600M1167.55 486.3V431" stroke="#5e5e5e" stroke-width="2" fill="none"/><path d="M1168.55 487.3l-2 .02v-1.03h2" fill="#5e5e5e"/><path d="M1167.55 431.03V430" stroke="#5e5e5e" stroke-width="2" fill="none"/><path d="M547 749.35l-.7 1.68-21.47-25.77-1.84 1.56-1.84-1.56-21.48 25.77-.7-1.68-14.2 34.13 4.43 1.87 9.8-23.5 9.78 23.5 4.43-1.87-11.46-27.46L523 730.54l21.24 25.48-11.46 27.46 4.43 1.87 9.8-23.5 9.77 23.5 4.44-1.87-14.2-34.13z" stroke="#000" stroke-opacity="0" stroke-width="3" fill="#7fba00"/><path d="M566.2 784.42c0 3.98-3.23 7.2-7.2 7.2-3.98 0-7.2-3.22-7.2-7.2s3.22-7.2 7.2-7.2c3.97 0 7.2 3.22 7.2 7.2zM542.2 784.42c0 3.98-3.23 7.2-7.2 7.2-3.98 0-7.2-3.22-7.2-7.2s3.22-7.2 7.2-7.2c3.97 0 7.2 3.22 7.2 7.2z" stroke="#000" stroke-opacity="0" stroke-width="3" fill="#3999c6"/><path d="M535 726.8c0 6.62-5.38 12-12 12-6.63 0-12-5.38-12-12 0-6.63 5.37-12 12-12 6.62 0 12 5.37 12 12z" stroke="#000" stroke-opacity="0" stroke-width="3" fill="#804998"/><path d="M508.6 755.6c0 5.3-4.3 9.6-9.6 9.6s-9.6-4.3-9.6-9.6 4.3-9.6 9.6-9.6 9.6 4.3 9.6 9.6zM556.6 755.6c0 5.3-4.3 9.6-9.6 9.6s-9.6-4.3-9.6-9.6 4.3-9.6 9.6-9.6 9.6 4.3 9.6 9.6z" stroke="#000" stroke-opacity="0" stroke-width="3" fill="#0072c6"/><path d="M518.2 784.42c0 3.98-3.23 7.2-7.2 7.2-3.98 0-7.2-3.22-7.2-7.2s3.22-7.2 7.2-7.2c3.97 0 7.2 3.22 7.2 7.2zM494.2 784.42c0 3.98-3.23 7.2-7.2 7.2-3.98 0-7.2-3.22-7.2-7.2s3.22-7.2 7.2-7.2c3.97 0 7.2 3.22 7.2 7.2z" stroke="#000" stroke-opacity="0" stroke-width="3" fill="#3999c6"/><path d="M485.8 807c-.6-.1-1.1-.2-1.7-.5l-16.3-9.6c-3-1.74-4.7-4.65-4.8-8.15v-60.53c0-3.5 1.8-6.4 4.8-8.15l16.3-9.6c1.7-.97 3.85-.4 4.8 1.26.97 1.65.37 3.78-1.2 4.75l-16.3 9.6c-.73.6-1.1 1.27-1.2 2.14v60.53c.1.88.47 1.56 1.2 2.14l16.3 9.6c1.7.96 2.17 3.2 1.2 4.84-.7.97-1.8 1.55-3.1 1.65zm74.4-97.02c.6.1 1.07.2 1.67.5l16.32 9.6c3 1.74 4.67 4.65 4.8 8.14v60.53c0 3.5-1.8 6.4-4.8 8.15l-16.33 9.6c-1.68.98-3.84.4-4.8-1.25s-.36-3.8 1.2-4.76l16.32-9.6c.7-.6 1.07-1.27 1.2-2.15v-60.53c-.13-.87-.5-1.55-1.2-2.13l-16.33-9.62c-1.68-.97-2.16-3.2-1.2-4.85.84-.97 1.8-1.55 3.12-1.65z" stroke="#000" stroke-opacity="0" stroke-width="3" fill="#7a7a7a"/><path d="M466.4 724.54l19.2-12.07 75.32-.37 18.52 11.7.22 66.35-19.42 14.76h-74.76l-19.43-13.82z" stroke="#000" stroke-opacity="0" stroke-width="0" fill-opacity="0"/><use xlink:href="#h" transform="matrix(1,0,0,1,432.99199999999996,815.992) translate(57.05 14.4)"/><path d="M713.02 749.35l-.7 1.68-21.47-25.77-1.83 1.56-1.83-1.56-21.5 25.77-.68-1.68-14.22 34.13 4.44 1.87 9.78-23.5 9.78 23.5 4.44-1.87-11.47-27.46 21.25-25.48 21.25 25.48-11.47 27.46 4.44 1.87 9.78-23.5 9.78 23.5 4.44-1.87-14.22-34.13z" stroke="#000" stroke-opacity="0" stroke-width="3" fill="#7fba00"/><path d="M732.22 784.42c0 3.98-3.23 7.2-7.2 7.2s-7.2-3.22-7.2-7.2 3.23-7.2 7.2-7.2 7.2 3.22 7.2 7.2zM708.22 784.42c0 3.98-3.23 7.2-7.2 7.2s-7.2-3.22-7.2-7.2 3.23-7.2 7.2-7.2 7.2 3.22 7.2 7.2z" stroke="#000" stroke-opacity="0" stroke-width="3" fill="#3999c6"/><path d="M701.02 726.8c0 6.62-5.38 12-12 12s-12-5.38-12-12c0-6.63 5.38-12 12-12s12 5.37 12 12z" stroke="#000" stroke-opacity="0" stroke-width="3" fill="#804998"/><path d="M674.62 755.6c0 5.3-4.3 9.6-9.6 9.6s-9.6-4.3-9.6-9.6 4.3-9.6 9.6-9.6 9.6 4.3 9.6 9.6zM722.62 755.6c0 5.3-4.3 9.6-9.6 9.6s-9.6-4.3-9.6-9.6 4.3-9.6 9.6-9.6 9.6 4.3 9.6 9.6z" stroke="#000" stroke-opacity="0" stroke-width="3" fill="#0072c6"/><path d="M684.22 784.42c0 3.98-3.23 7.2-7.2 7.2s-7.2-3.22-7.2-7.2 3.23-7.2 7.2-7.2 7.2 3.22 7.2 7.2zM660.22 784.42c0 3.98-3.23 7.2-7.2 7.2s-7.2-3.22-7.2-7.2 3.23-7.2 7.2-7.2 7.2 3.22 7.2 7.2z" stroke="#000" stroke-opacity="0" stroke-width="3" fill="#3999c6"/><path d="M651.82 807c-.6-.1-1.08-.2-1.68-.5l-16.32-9.6c-3-1.74-4.68-4.65-4.8-8.15v-60.53c0-3.5 1.8-6.4 4.8-8.15l16.32-9.6c1.68-.97 3.84-.4 4.8 1.26.96 1.65.36 3.78-1.2 4.75l-16.32 9.6c-.72.6-1.08 1.27-1.2 2.14v60.53c.12.88.48 1.56 1.2 2.14l16.32 9.6c1.68.96 2.16 3.2 1.2 4.84-.72.97-1.8 1.55-3.12 1.65zm74.4-97.02c.6.1 1.08.2 1.68.5l16.32 9.6c3 1.74 4.68 4.65 4.8 8.14v60.53c0 3.5-1.8 6.4-4.8 8.15l-16.32 9.6c-1.68.98-3.84.4-4.8-1.25s-.36-3.8 1.2-4.76l16.32-9.6c.72-.6 1.08-1.27 1.2-2.15v-60.53c-.12-.87-.48-1.55-1.2-2.13l-16.32-9.62c-1.68-.97-2.16-3.2-1.2-4.85.84-.97 1.8-1.55 3.12-1.65z" stroke="#000" stroke-opacity="0" stroke-width="3" fill="#7a7a7a"/><path d="M632.42 724.54l19.2-12.07 75.33-.37 18.52 11.7.22 66.35-19.44 14.76H651.5l-19.42-13.82z" stroke="#000" stroke-opacity="0" stroke-width="0" fill-opacity="0"/><use xlink:href="#i" transform="matrix(1,0,0,1,599.0199999999998,815.992) translate(70.55 14.4)"/><path d="M945.02 743.84l-.7 1.68-21.47-25.78-1.83 1.57-1.84-1.56-21.47 25.78-.68-1.68-14.22 34.13 4.44 1.86 9.78-23.5 9.78 23.5 4.43-1.86-11.46-27.46 21.25-25.47 21.25 25.48-11.47 27.47 4.43 1.86 9.8-23.5 9.77 23.5 4.43-1.86-14.2-34.13z" stroke="#000" stroke-opacity="0" stroke-width="3" fill="#7fba00"/><path d="M964.22 778.9c0 4-3.23 7.2-7.2 7.2-3.98 0-7.2-3.2-7.2-7.2 0-3.97 3.22-7.2 7.2-7.2 3.97 0 7.2 3.23 7.2 7.2zM940.22 778.9c0 4-3.23 7.2-7.2 7.2-3.98 0-7.2-3.2-7.2-7.2 0-3.97 3.22-7.2 7.2-7.2 3.97 0 7.2 3.23 7.2 7.2z" stroke="#000" stroke-opacity="0" stroke-width="3" fill="#3999c6"/><path d="M933.02 721.28c0 6.63-5.38 12-12 12-6.63 0-12-5.37-12-12s5.37-12 12-12c6.62 0 12 5.37 12 12z" stroke="#000" stroke-opacity="0" stroke-width="3" fill="#804998"/><path d="M906.62 750.1c0 5.3-4.3 9.6-9.6 9.6s-9.6-4.3-9.6-9.6 4.3-9.6 9.6-9.6 9.6 4.3 9.6 9.6zM954.62 750.1c0 5.3-4.3 9.6-9.6 9.6s-9.6-4.3-9.6-9.6 4.3-9.6 9.6-9.6 9.6 4.3 9.6 9.6z" stroke="#000" stroke-opacity="0" stroke-width="3" fill="#0072c6"/><path d="M916.22 778.9c0 4-3.23 7.2-7.2 7.2-3.98 0-7.2-3.2-7.2-7.2 0-3.97 3.22-7.2 7.2-7.2 3.97 0 7.2 3.23 7.2 7.2zM892.22 778.9c0 4-3.23 7.2-7.2 7.2-3.98 0-7.2-3.2-7.2-7.2 0-3.97 3.22-7.2 7.2-7.2 3.97 0 7.2 3.23 7.2 7.2z" stroke="#000" stroke-opacity="0" stroke-width="3" fill="#3999c6"/><path d="M883.82 801.48c-.6-.1-1.08-.2-1.68-.48l-16.32-9.6c-3-1.75-4.68-4.66-4.8-8.16V722.7c0-3.48 1.8-6.4 4.8-8.14l16.32-9.6c1.68-.97 3.84-.4 4.8 1.26.96 1.65.36 3.78-1.2 4.75l-16.32 9.6c-.72.6-1.08 1.27-1.2 2.14v60.54c.12.88.48 1.56 1.2 2.14l16.32 9.6c1.68.97 2.16 3.2 1.2 4.85-.72.97-1.8 1.55-3.12 1.65zm74.4-97c.6.1 1.08.2 1.68.48l16.32 9.6c3 1.75 4.68 4.66 4.8 8.15v60.54c0 3.5-1.8 6.4-4.8 8.15L959.9 801c-1.68.97-3.84.38-4.8-1.27-.96-1.64-.36-3.78 1.2-4.75l16.32-9.6c.72-.58 1.08-1.26 1.2-2.14V722.7c-.12-.86-.48-1.54-1.2-2.12l-16.32-9.6c-1.68-.98-2.16-3.2-1.2-4.86.84-.97 1.8-1.55 3.12-1.65z" stroke="#000" stroke-opacity="0" stroke-width="3" fill="#7a7a7a"/><path d="M864.4 719.02l19.22-12.06 75.32-.37 18.52 11.68.23 66.36-19.44 14.76H883.5l-19.43-13.83z" stroke="#000" stroke-opacity="0" stroke-width="0" fill-opacity="0"/><use xlink:href="#d" transform="matrix(1,0,0,1,831.0180000000001,810.48075) translate(37.55 14.4)"/><path d="M1110.02 743.84l-.7 1.68-21.47-25.78-1.83 1.57-1.84-1.56-21.47 25.78-.68-1.68-14.22 34.13 4.44 1.86 9.78-23.5 9.78 23.5 4.43-1.86-11.46-27.46 21.25-25.47 21.25 25.48-11.47 27.47 4.43 1.86 9.8-23.5 9.77 23.5 4.43-1.86-14.2-34.13z" stroke="#000" stroke-opacity="0" stroke-width="3" fill="#7fba00"/><path d="M1129.22 778.9c0 4-3.23 7.2-7.2 7.2-3.98 0-7.2-3.2-7.2-7.2 0-3.97 3.22-7.2 7.2-7.2 3.97 0 7.2 3.23 7.2 7.2zM1105.22 778.9c0 4-3.23 7.2-7.2 7.2-3.98 0-7.2-3.2-7.2-7.2 0-3.97 3.22-7.2 7.2-7.2 3.97 0 7.2 3.23 7.2 7.2z" stroke="#000" stroke-opacity="0" stroke-width="3" fill="#3999c6"/><path d="M1098.02 721.28c0 6.63-5.38 12-12 12-6.63 0-12-5.37-12-12s5.37-12 12-12c6.62 0 12 5.37 12 12z" stroke="#000" stroke-opacity="0" stroke-width="3" fill="#804998"/><path d="M1071.62 750.1c0 5.3-4.3 9.6-9.6 9.6s-9.6-4.3-9.6-9.6 4.3-9.6 9.6-9.6 9.6 4.3 9.6 9.6zM1119.62 750.1c0 5.3-4.3 9.6-9.6 9.6s-9.6-4.3-9.6-9.6 4.3-9.6 9.6-9.6 9.6 4.3 9.6 9.6z" stroke="#000" stroke-opacity="0" stroke-width="3" fill="#0072c6"/><path d="M1081.22 778.9c0 4-3.23 7.2-7.2 7.2-3.98 0-7.2-3.2-7.2-7.2 0-3.97 3.22-7.2 7.2-7.2 3.97 0 7.2 3.23 7.2 7.2zM1057.22 778.9c0 4-3.23 7.2-7.2 7.2-3.98 0-7.2-3.2-7.2-7.2 0-3.97 3.22-7.2 7.2-7.2 3.97 0 7.2 3.23 7.2 7.2z" stroke="#000" stroke-opacity="0" stroke-width="3" fill="#3999c6"/><path d="M1048.82 801.48c-.6-.1-1.08-.2-1.68-.48l-16.32-9.6c-3-1.75-4.68-4.66-4.8-8.16V722.7c0-3.48 1.8-6.4 4.8-8.14l16.32-9.6c1.68-.97 3.84-.4 4.8 1.26.96 1.65.36 3.78-1.2 4.75l-16.32 9.6c-.72.6-1.08 1.27-1.2 2.14v60.54c.12.88.48 1.56 1.2 2.14l16.32 9.6c1.68.97 2.16 3.2 1.2 4.85-.72.97-1.8 1.55-3.12 1.65zm74.4-97c.6.1 1.08.2 1.68.48l16.32 9.6c3 1.75 4.68 4.66 4.8 8.15v60.54c0 3.5-1.8 6.4-4.8 8.15l-16.32 9.6c-1.68.97-3.84.38-4.8-1.27-.96-1.64-.36-3.78 1.2-4.75l16.32-9.6c.72-.58 1.08-1.26 1.2-2.14V722.7c-.12-.86-.48-1.54-1.2-2.12l-16.32-9.6c-1.68-.98-2.16-3.2-1.2-4.86.84-.97 1.8-1.55 3.12-1.65z" stroke="#000" stroke-opacity="0" stroke-width="3" fill="#7a7a7a"/><path d="M1029.4 719.02l19.22-12.06 75.32-.37 18.52 11.68.23 66.36-19.44 14.76h-74.76l-19.43-13.83z" stroke="#000" stroke-opacity="0" stroke-width="0" fill-opacity="0"/><use xlink:href="#e" transform="matrix(1,0,0,1,996.018,810.48075) translate(41.074999999999996 14.4)"/><path d="M1414.04 664.5H922.02M1414 664.5h1.04M922.04 664.5h-1.02M1162.16 620.5v43M1162.16 620.5v-1M1162.16 663.46v1.03M1415.04 665.5v40.27M1415.04 665.5v-1" stroke="#5e5e5e" stroke-width="2" fill="none"/><path d="M1416.04 706.77h-2v-1.02h2" fill="#5e5e5e"/><path d="M1273 743.84l-.68 1.68-21.48-25.78-1.83 1.57-1.82-1.56-21.48 25.78-.7-1.68-14.2 34.13 4.43 1.86 9.78-23.5 9.8 23.5 4.43-1.86-11.47-27.46 21.25-25.47 21.26 25.48-11.47 27.47 4.43 1.86 9.78-23.5 9.8 23.5 4.43-1.86-14.22-34.13z" stroke="#000" stroke-opacity="0" stroke-width="3" fill="#7fba00"/><path d="M1292.2 778.9c0 4-3.22 7.2-7.2 7.2-3.96 0-7.2-3.2-7.2-7.2 0-3.97 3.24-7.2 7.2-7.2 3.98 0 7.2 3.23 7.2 7.2zM1268.2 778.9c0 4-3.22 7.2-7.2 7.2-3.96 0-7.2-3.2-7.2-7.2 0-3.97 3.24-7.2 7.2-7.2 3.98 0 7.2 3.23 7.2 7.2z" stroke="#000" stroke-opacity="0" stroke-width="3" fill="#3999c6"/><path d="M1261 721.28c0 6.63-5.37 12-12 12-6.6 0-12-5.37-12-12s5.4-12 12-12c6.63 0 12 5.37 12 12z" stroke="#000" stroke-opacity="0" stroke-width="3" fill="#804998"/><path d="M1234.6 750.1c0 5.3-4.3 9.6-9.6 9.6s-9.6-4.3-9.6-9.6 4.3-9.6 9.6-9.6 9.6 4.3 9.6 9.6zM1282.6 750.1c0 5.3-4.3 9.6-9.6 9.6s-9.6-4.3-9.6-9.6 4.3-9.6 9.6-9.6 9.6 4.3 9.6 9.6z" stroke="#000" stroke-opacity="0" stroke-width="3" fill="#0072c6"/><path d="M1244.2 778.9c0 4-3.22 7.2-7.2 7.2-3.96 0-7.2-3.2-7.2-7.2 0-3.97 3.24-7.2 7.2-7.2 3.98 0 7.2 3.23 7.2 7.2zM1220.2 778.9c0 4-3.22 7.2-7.2 7.2-3.96 0-7.2-3.2-7.2-7.2 0-3.97 3.24-7.2 7.2-7.2 3.98 0 7.2 3.23 7.2 7.2z" stroke="#000" stroke-opacity="0" stroke-width="3" fill="#3999c6"/><path d="M1211.8 801.48c-.6-.1-1.07-.2-1.67-.48l-16.32-9.6c-3-1.75-4.67-4.66-4.8-8.16V722.7c0-3.48 1.8-6.4 4.8-8.14l16.33-9.6c1.68-.97 3.84-.4 4.8 1.26.96 1.65.36 3.78-1.2 4.75l-16.32 9.6c-.7.6-1.07 1.27-1.2 2.14v60.54c.13.88.5 1.56 1.2 2.14l16.33 9.6c1.68.97 2.16 3.2 1.2 4.85-.72.97-1.8 1.55-3.12 1.65zm74.4-97c.6.1 1.1.2 1.7.48l16.3 9.6c3 1.75 4.7 4.66 4.8 8.15v60.54c0 3.5-1.8 6.4-4.8 8.15l-16.3 9.6c-1.7.97-3.85.38-4.8-1.27-.97-1.64-.37-3.78 1.2-4.75l16.3-9.6c.73-.58 1.1-1.26 1.2-2.14V722.7c-.1-.86-.47-1.54-1.2-2.12l-16.3-9.6c-1.7-.98-2.17-3.2-1.2-4.86.83-.97 1.8-1.55 3.1-1.65z" stroke="#000" stroke-opacity="0" stroke-width="3" fill="#7a7a7a"/><path d="M1192.4 719.02l19.2-12.06 75.34-.37 18.52 11.68.22 66.36-19.43 14.76h-74.76l-19.43-13.83z" stroke="#000" stroke-opacity="0" stroke-width="0" fill-opacity="0"/><use xlink:href="#h" transform="matrix(1,0,0,1,1159.0100000000002,810.48075) translate(57.05 14.4)"/><path d="M1439.04 743.84l-.7 1.68-21.47-25.78-1.83 1.57-1.84-1.56-21.47 25.78-.7-1.68-14.2 34.13 4.43 1.86 9.78-23.5 9.78 23.5 4.43-1.86-11.46-27.46 21.24-25.47 21.25 25.48-11.48 27.47 4.43 1.86 9.8-23.5 9.77 23.5 4.43-1.86-14.2-34.13z" stroke="#000" stroke-opacity="0" stroke-width="3" fill="#7fba00"/><path d="M1458.24 778.9c0 4-3.23 7.2-7.2 7.2-3.98 0-7.2-3.2-7.2-7.2 0-3.97 3.22-7.2 7.2-7.2 3.97 0 7.2 3.23 7.2 7.2zM1434.24 778.9c0 4-3.23 7.2-7.2 7.2-3.98 0-7.2-3.2-7.2-7.2 0-3.97 3.22-7.2 7.2-7.2 3.97 0 7.2 3.23 7.2 7.2z" stroke="#000" stroke-opacity="0" stroke-width="3" fill="#3999c6"/><path d="M1427.04 721.28c0 6.63-5.38 12-12 12-6.63 0-12-5.37-12-12s5.37-12 12-12c6.62 0 12 5.37 12 12z" stroke="#000" stroke-opacity="0" stroke-width="3" fill="#804998"/><path d="M1400.64 750.1c0 5.3-4.3 9.6-9.6 9.6s-9.6-4.3-9.6-9.6 4.3-9.6 9.6-9.6 9.6 4.3 9.6 9.6zM1448.64 750.1c0 5.3-4.3 9.6-9.6 9.6s-9.6-4.3-9.6-9.6 4.3-9.6 9.6-9.6 9.6 4.3 9.6 9.6z" stroke="#000" stroke-opacity="0" stroke-width="3" fill="#0072c6"/><path d="M1410.24 778.9c0 4-3.23 7.2-7.2 7.2-3.98 0-7.2-3.2-7.2-7.2 0-3.97 3.22-7.2 7.2-7.2 3.97 0 7.2 3.23 7.2 7.2zM1386.24 778.9c0 4-3.23 7.2-7.2 7.2-3.98 0-7.2-3.2-7.2-7.2 0-3.97 3.22-7.2 7.2-7.2 3.97 0 7.2 3.23 7.2 7.2z" stroke="#000" stroke-opacity="0" stroke-width="3" fill="#3999c6"/><path d="M1377.84 801.48c-.6-.1-1.08-.2-1.68-.48l-16.32-9.6c-3-1.75-4.68-4.66-4.8-8.16V722.7c0-3.48 1.8-6.4 4.8-8.14l16.32-9.6c1.68-.97 3.84-.4 4.8 1.26.96 1.65.36 3.78-1.2 4.75l-16.32 9.6c-.72.6-1.08 1.27-1.2 2.14v60.54c.12.88.48 1.56 1.2 2.14l16.32 9.6c1.68.97 2.16 3.2 1.2 4.85-.72.97-1.8 1.55-3.12 1.65zm74.4-97c.6.1 1.08.2 1.68.48l16.32 9.6c3 1.75 4.68 4.66 4.8 8.15v60.54c0 3.5-1.8 6.4-4.8 8.15l-16.32 9.6c-1.68.97-3.84.38-4.8-1.27-.96-1.64-.36-3.78 1.2-4.75l16.32-9.6c.72-.58 1.08-1.26 1.2-2.14V722.7c-.12-.86-.48-1.54-1.2-2.12l-16.32-9.6c-1.68-.98-2.16-3.2-1.2-4.86.84-.97 1.8-1.55 3.12-1.65z" stroke="#000" stroke-opacity="0" stroke-width="3" fill="#7a7a7a"/><path d="M1358.43 719.02l19.2-12.06 75.33-.37 18.52 11.68.23 66.36-19.42 14.76h-74.76l-19.43-13.83z" stroke="#000" stroke-opacity="0" stroke-width="0" fill-opacity="0"/><use xlink:href="#i" transform="matrix(1,0,0,1,1325.038,810.48075) translate(70.55 14.4)"/><path d="M1087 691v-25.5M1087 690.96V692M1087 665.5v-1M1249.07 693.5v-28M1249.07 693.46v1.03M1249.07 665.5v-1M920 666v33M920 666.03V665M920 698.97V700" stroke="#5e5e5e" stroke-width="2" fill="none"/><path d="M238.38 887.55c2.16-1.98 2.16-5.22 0-7.2l-9.48-8.87c-2.16-1.98-5.64-1.98-7.8 0l-9.48 8.87c-2.16 1.98-2.16 5.22 0 7.2l8.34 7.8v14.97L225 915l4.38-4.05v-.05l2.55-2.38-2.55-2.38 2.55-2.35-2.55-2.4 2.55-2.33-2.55-2.4v-.7l9-8.42zM225 873.65c1.74-.05 3.15 1.25 3.18 2.83.03 1.62-1.35 2.92-3.06 2.97H225c-1.74-.05-3.1-1.35-3.06-2.97.03-1.58 1.38-2.84 3.06-2.84z" stroke="#000" stroke-opacity="0" stroke-width="3" fill="#fcd116"/><path d="M222.32 909.56l1.96 1.8V897l-1.96-.9z" stroke="#000" stroke-opacity="0" stroke-width="3" fill="#ff8c00" fill-opacity=".4"/><path d="M215.68 882.25h18.03v2.42H215.7zm0 3.93h18.03v2.4H215.7z" stroke="#000" stroke-opacity="0" stroke-width="3" fill="#fff" fill-opacity=".5"/><path d="M355 846v33.62M355 846.03V845M355 879.6v1.02M371 880.62h-15" stroke="#5e5e5e" stroke-width="2" fill="none"/><path d="M371.62 880.97l-.45.65h-.2v-2h2.1" fill="#5e5e5e"/><path d="M356.03 880.62H355" stroke="#5e5e5e" stroke-width="2" fill="none"/><path d="M398.38 888.17c2.16-1.98 2.16-5.22 0-7.2l-9.48-8.86c-2.16-1.97-5.64-1.97-7.8 0l-9.48 8.87c-2.16 1.98-2.16 5.22 0 7.2l8.34 7.8v14.97l5.04 4.68 4.38-4.05v-.04l2.55-2.4-2.55-2.37 2.55-2.34-2.55-2.4 2.55-2.33-2.55-2.4v-.7l9-8.43zM385 874.27c1.74-.05 3.15 1.26 3.18 2.83.03 1.62-1.35 2.93-3.06 2.97H385c-1.74-.04-3.1-1.35-3.06-2.97.03-1.57 1.38-2.83 3.06-2.83z" stroke="#000" stroke-opacity="0" stroke-width="3" fill="#fcd116"/><path d="M382.32 910.18l1.96 1.8v-14.35l-1.96-.9z" stroke="#000" stroke-opacity="0" stroke-width="3" fill="#ff8c00" fill-opacity=".4"/><path d="M375.68 882.88h18.03v2.4H375.7zm0 3.92h18.03v2.4H375.7z" stroke="#000" stroke-opacity="0" stroke-width="3" fill="#fff" fill-opacity=".5"/><path d="M1085 841v33.62M1085 841.03V840M1085 874.6v1.02M1101 875.62h-15" stroke="#5e5e5e" stroke-width="2" fill="none"/><path d="M1101.62 875.97l-.45.65h-.2v-2h2.1" fill="#5e5e5e"/><path d="M1086.03 875.62H1085" stroke="#5e5e5e" stroke-width="2" fill="none"/><path d="M1128.38 883.17c2.16-1.98 2.16-5.22 0-7.2l-9.48-8.86c-2.16-1.97-5.64-1.97-7.8 0l-9.48 8.87c-2.16 1.98-2.16 5.22 0 7.2l8.34 7.8v14.97l5.04 4.68 4.38-4.05v-.04l2.55-2.4-2.55-2.37 2.55-2.34-2.55-2.4 2.55-2.33-2.55-2.4v-.7l9-8.43zm-13.38-13.9c1.74-.05 3.15 1.26 3.18 2.83.03 1.62-1.35 2.93-3.06 2.97h-.12c-1.74-.04-3.1-1.35-3.06-2.97.03-1.57 1.38-2.83 3.06-2.83z" stroke="#000" stroke-opacity="0" stroke-width="3" fill="#fcd116"/><path d="M1112.32 905.18l1.96 1.8v-14.35l-1.96-.9z" stroke="#000" stroke-opacity="0" stroke-width="3" fill="#ff8c00" fill-opacity=".4"/><path d="M1105.68 877.88h18.03v2.4h-18.02zm0 3.92h18.03v2.4h-18.02z" stroke="#000" stroke-opacity="0" stroke-width="3" fill="#fff" fill-opacity=".5"/><path d="M920 841v33.62M920 841.03V840M920 874.6v1.02M936 875.62h-15" stroke="#5e5e5e" stroke-width="2" fill="none"/><path d="M936.62 875.97l-.45.65h-.2v-2h2.1" fill="#5e5e5e"/><path d="M921.03 875.62H920" stroke="#5e5e5e" stroke-width="2" fill="none"/><path d="M963.38 883.17c2.16-1.98 2.16-5.22 0-7.2l-9.48-8.86c-2.16-1.97-5.64-1.97-7.8 0l-9.48 8.87c-2.16 1.98-2.16 5.22 0 7.2l8.34 7.8v14.97l5.04 4.68 4.38-4.05v-.04l2.55-2.4-2.55-2.37 2.55-2.34-2.55-2.4 2.55-2.33-2.55-2.4v-.7l9-8.43zM950 869.27c1.74-.05 3.15 1.26 3.18 2.83.03 1.62-1.35 2.93-3.06 2.97H950c-1.74-.04-3.1-1.35-3.06-2.97.03-1.57 1.38-2.83 3.06-2.83z" stroke="#000" stroke-opacity="0" stroke-width="3" fill="#fcd116"/><path d="M947.32 905.18l1.96 1.8v-14.35l-1.96-.9z" stroke="#000" stroke-opacity="0" stroke-width="3" fill="#ff8c00" fill-opacity=".4"/><path d="M940.68 877.88h18.03v2.4H940.7zm0 3.92h18.03v2.4H940.7z" stroke="#000" stroke-opacity="0" stroke-width="3" fill="#fff" fill-opacity=".5"/><path d="M520 841v33.62M520 841.03V840M520 874.6v1.02M536 875.62h-15" stroke="#5e5e5e" stroke-width="2" fill="none"/><path d="M536.62 875.97l-.45.65h-.2v-2h2.1" fill="#5e5e5e"/><path d="M521.03 875.62H520" stroke="#5e5e5e" stroke-width="2" fill="none"/><path d="M563.38 883.17c2.16-1.98 2.16-5.22 0-7.2l-9.48-8.86c-2.16-1.97-5.64-1.97-7.8 0l-9.48 8.87c-2.16 1.98-2.16 5.22 0 7.2l8.34 7.8v14.97l5.04 4.68 4.38-4.05v-.04l2.55-2.4-2.55-2.37 2.55-2.34-2.55-2.4 2.55-2.33-2.55-2.4v-.7l9-8.43zM550 869.27c1.74-.05 3.15 1.26 3.18 2.83.03 1.62-1.35 2.93-3.06 2.97H550c-1.74-.04-3.1-1.35-3.06-2.97.03-1.57 1.38-2.83 3.06-2.83z" stroke="#000" stroke-opacity="0" stroke-width="3" fill="#fcd116"/><path d="M547.32 905.18l1.96 1.8v-14.35l-1.96-.9z" stroke="#000" stroke-opacity="0" stroke-width="3" fill="#ff8c00" fill-opacity=".4"/><path d="M540.68 877.88h18.03v2.4H540.7zm0 3.92h18.03v2.4H540.7z" stroke="#000" stroke-opacity="0" stroke-width="3" fill="#fff" fill-opacity=".5"/><path d="M520 876.62v68M520 876.65v-1.03M520 944.6v1.02M536 945.62h-15" stroke="#5e5e5e" stroke-width="2" fill="none"/><path d="M536.62 945.97l-.45.65h-.2v-2h2.1" fill="#5e5e5e"/><path d="M521.03 945.62H520" stroke="#5e5e5e" stroke-width="2" fill="none"/><path d="M563.38 953.17c2.16-1.98 2.16-5.22 0-7.2l-9.48-8.86c-2.16-1.97-5.64-1.97-7.8 0l-9.48 8.87c-2.16 1.98-2.16 5.22 0 7.2l8.34 7.8v14.97l5.04 4.68 4.38-4.05v-.04l2.55-2.4-2.55-2.37 2.55-2.34-2.55-2.4 2.55-2.33-2.55-2.4v-.7l9-8.43zM550 939.27c1.74-.05 3.15 1.26 3.18 2.83.03 1.62-1.35 2.93-3.06 2.97H550c-1.74-.04-3.1-1.35-3.06-2.97.03-1.57 1.38-2.83 3.06-2.83z" stroke="#000" stroke-opacity="0" stroke-width="3" fill="#fcd116"/><path d="M547.32 975.18l1.96 1.8v-14.35l-1.96-.9z" stroke="#000" stroke-opacity="0" stroke-width="3" fill="#ff8c00" fill-opacity=".4"/><path d="M540.68 947.88h18.03v2.4H540.7zm0 3.92h18.03v2.4H540.7z" stroke="#000" stroke-opacity="0" stroke-width="3" fill="#fff" fill-opacity=".5"/><path d="M690 841v33.62M690 841.03V840M690 874.6v1.02M706 875.62h-15" stroke="#5e5e5e" stroke-width="2" fill="none"/><path d="M706.62 875.97l-.45.65h-.2v-2h2.1" fill="#5e5e5e"/><path d="M691.03 875.62H690" stroke="#5e5e5e" stroke-width="2" fill="none"/><path d="M733.38 883.17c2.16-1.98 2.16-5.22 0-7.2l-9.48-8.86c-2.16-1.97-5.64-1.97-7.8 0l-9.48 8.87c-2.16 1.98-2.16 5.22 0 7.2l8.34 7.8v14.97l5.04 4.68 4.38-4.05v-.04l2.55-2.4-2.55-2.37 2.55-2.34-2.55-2.4 2.55-2.33-2.55-2.4v-.7l9-8.43zM720 869.27c1.74-.05 3.15 1.26 3.18 2.83.03 1.62-1.35 2.93-3.06 2.97H720c-1.74-.04-3.1-1.35-3.06-2.97.03-1.57 1.38-2.83 3.06-2.83z" stroke="#000" stroke-opacity="0" stroke-width="3" fill="#fcd116"/><path d="M717.32 905.18l1.96 1.8v-14.35l-1.96-.9z" stroke="#000" stroke-opacity="0" stroke-width="3" fill="#ff8c00" fill-opacity=".4"/><path d="M710.68 877.88h18.03v2.4H710.7zm0 3.92h18.03v2.4H710.7z" stroke="#000" stroke-opacity="0" stroke-width="3" fill="#fff" fill-opacity=".5"/><path d="M690 876.62v68M690 876.65v-1.03M690 944.6v1.02M706 945.62h-15" stroke="#5e5e5e" stroke-width="2" fill="none"/><path d="M706.62 945.97l-.45.65h-.2v-2h2.1" fill="#5e5e5e"/><path d="M691.03 945.62H690" stroke="#5e5e5e" stroke-width="2" fill="none"/><path d="M733.38 953.17c2.16-1.98 2.16-5.22 0-7.2l-9.48-8.86c-2.16-1.97-5.64-1.97-7.8 0l-9.48 8.87c-2.16 1.98-2.16 5.22 0 7.2l8.34 7.8v14.97l5.04 4.68 4.38-4.05v-.04l2.55-2.4-2.55-2.37 2.55-2.34-2.55-2.4 2.55-2.33-2.55-2.4v-.7l9-8.43zM720 939.27c1.74-.05 3.15 1.26 3.18 2.83.03 1.62-1.35 2.93-3.06 2.97H720c-1.74-.04-3.1-1.35-3.06-2.97.03-1.57 1.38-2.83 3.06-2.83z" stroke="#000" stroke-opacity="0" stroke-width="3" fill="#fcd116"/><path d="M717.32 975.18l1.96 1.8v-14.35l-1.96-.9z" stroke="#000" stroke-opacity="0" stroke-width="3" fill="#ff8c00" fill-opacity=".4"/><path d="M710.68 947.88h18.03v2.4H710.7zm0 3.92h18.03v2.4H710.7z" stroke="#000" stroke-opacity="0" stroke-width="3" fill="#fff" fill-opacity=".5"/><path d="M1249.76 836.46v33.62M1249.76 836.48v-1.02M1249.76 870.05v1.03M1265.76 871.08h-15" stroke="#5e5e5e" stroke-width="2" fill="none"/><path d="M1266.38 871.43l-.44.65h-.2v-2h2.1" fill="#5e5e5e"/><path d="M1250.8 871.08h-1.04" stroke="#5e5e5e" stroke-width="2" fill="none"/><path d="M1293.14 878.63c2.16-1.98 2.16-5.22 0-7.2l-9.48-8.87c-2.16-1.98-5.64-1.98-7.8 0l-9.48 8.87c-2.16 1.98-2.16 5.22 0 7.2l8.34 7.78v15l5.04 4.68 4.38-4.05v-.05l2.55-2.38-2.56-2.4 2.55-2.33-2.56-2.38 2.55-2.35-2.56-2.4v-.7l9-8.42zm-13.38-13.9c1.74-.05 3.15 1.25 3.18 2.83.03 1.62-1.35 2.92-3.06 2.97h-.12c-1.74-.05-3.1-1.35-3.06-2.97.03-1.58 1.38-2.84 3.06-2.84z" stroke="#000" stroke-opacity="0" stroke-width="3" fill="#fcd116"/><path d="M1277.08 900.64l1.96 1.8v-14.36l-1.96-.9z" stroke="#000" stroke-opacity="0" stroke-width="3" fill="#ff8c00" fill-opacity=".4"/><path d="M1270.44 873.33h18.04v2.4h-18.04zm0 3.92h18.04v2.4h-18.04z" stroke="#000" stroke-opacity="0" stroke-width="3" fill="#fff" fill-opacity=".5"/><path d="M1249.76 872.08v68M1249.76 872.1v-1.02M1249.76 940.05v1.03M1265.76 941.08h-15" stroke="#5e5e5e" stroke-width="2" fill="none"/><path d="M1266.38 941.43l-.44.65h-.2v-2h2.1" fill="#5e5e5e"/><path d="M1250.8 941.08h-1.04" stroke="#5e5e5e" stroke-width="2" fill="none"/><path d="M1293.14 948.63c2.16-1.98 2.16-5.22 0-7.2l-9.48-8.87c-2.16-1.98-5.64-1.98-7.8 0l-9.48 8.87c-2.16 1.98-2.16 5.22 0 7.2l8.34 7.78v15l5.04 4.68 4.38-4.05v-.05l2.55-2.38-2.56-2.4 2.55-2.33-2.56-2.38 2.55-2.35-2.56-2.4v-.7l9-8.42zm-13.38-13.9c1.74-.05 3.15 1.25 3.18 2.83.03 1.62-1.35 2.92-3.06 2.97h-.12c-1.74-.05-3.1-1.35-3.06-2.97.03-1.58 1.38-2.84 3.06-2.84z" stroke="#000" stroke-opacity="0" stroke-width="3" fill="#fcd116"/><path d="M1277.08 970.64l1.96 1.8v-14.36l-1.96-.9z" stroke="#000" stroke-opacity="0" stroke-width="3" fill="#ff8c00" fill-opacity=".4"/><path d="M1270.44 943.33h18.04v2.4h-18.04zm0 3.92h18.04v2.4h-18.04z" stroke="#000" stroke-opacity="0" stroke-width="3" fill="#fff" fill-opacity=".5"/><path d="M1420 836.46v33.62M1420 836.48v-1.02M1420 870.05v1.03M1436 871.08h-15" stroke="#5e5e5e" stroke-width="2" fill="none"/><path d="M1436.62 871.43l-.45.65h-.2v-2h2.1" fill="#5e5e5e"/><path d="M1421.03 871.08H1420" stroke="#5e5e5e" stroke-width="2" fill="none"/><path d="M1463.38 878.63c2.16-1.98 2.16-5.22 0-7.2l-9.48-8.87c-2.16-1.98-5.64-1.98-7.8 0l-9.48 8.87c-2.16 1.98-2.16 5.22 0 7.2l8.34 7.78v15l5.04 4.68 4.38-4.05v-.05l2.55-2.38-2.55-2.4 2.55-2.33-2.55-2.38 2.55-2.35-2.55-2.4v-.7l9-8.42zm-13.38-13.9c1.74-.05 3.15 1.25 3.18 2.83.03 1.62-1.35 2.92-3.06 2.97h-.12c-1.74-.05-3.1-1.35-3.06-2.97.03-1.58 1.38-2.84 3.06-2.84z" stroke="#000" stroke-opacity="0" stroke-width="3" fill="#fcd116"/><path d="M1447.32 900.64l1.96 1.8v-14.36l-1.96-.9z" stroke="#000" stroke-opacity="0" stroke-width="3" fill="#ff8c00" fill-opacity=".4"/><path d="M1440.68 873.33h18.03v2.4h-18.02zm0 3.92h18.03v2.4h-18.02z" stroke="#000" stroke-opacity="0" stroke-width="3" fill="#fff" fill-opacity=".5"/><path d="M1420 872.08v68M1420 872.1v-1.02M1420 940.05v1.03M1436 941.08h-15" stroke="#5e5e5e" stroke-width="2" fill="none"/><path d="M1436.62 941.43l-.45.65h-.2v-2h2.1" fill="#5e5e5e"/><path d="M1421.03 941.08H1420" stroke="#5e5e5e" stroke-width="2" fill="none"/><path d="M1463.38 948.63c2.16-1.98 2.16-5.22 0-7.2l-9.48-8.87c-2.16-1.98-5.64-1.98-7.8 0l-9.48 8.87c-2.16 1.98-2.16 5.22 0 7.2l8.34 7.78v15l5.04 4.68 4.38-4.05v-.05l2.55-2.38-2.55-2.4 2.55-2.33-2.55-2.38 2.55-2.35-2.55-2.4v-.7l9-8.42zm-13.38-13.9c1.74-.05 3.15 1.25 3.18 2.83.03 1.62-1.35 2.92-3.06 2.97h-.12c-1.74-.05-3.1-1.35-3.06-2.97.03-1.58 1.38-2.84 3.06-2.84z" stroke="#000" stroke-opacity="0" stroke-width="3" fill="#fcd116"/><path d="M1447.32 970.64l1.96 1.8v-14.36l-1.96-.9z" stroke="#000" stroke-opacity="0" stroke-width="3" fill="#ff8c00" fill-opacity=".4"/><path d="M1440.68 943.33h18.03v2.4h-18.02zm0 3.92h18.03v2.4h-18.02z" stroke="#000" stroke-opacity="0" stroke-width="3" fill="#fff" fill-opacity=".5"/><path d="M240 871.6h75.9v23.94H240z" fill="#fff" fill-opacity="0"/><use xlink:href="#j" transform="matrix(1,0,0,1,244.99999999999997,876.6140186807613) translate(0 10.844444444444445)"/><path d="M405 871.6h75.9v23.94H405z" fill="#fff" fill-opacity="0"/><use xlink:href="#k" transform="matrix(1,0,0,1,410,876.6140186807613) translate(0 10.844444444444445)"/><path d="M575 870h75.9v23.92H575z" fill="#fff" fill-opacity="0"/><use xlink:href="#l" transform="matrix(1,0,0,1,580,875) translate(0 10.844444444444445)"/><use xlink:href="#m" transform="matrix(1,0,0,1,580,875) translate(0 27.11111111111111)"/><use xlink:href="#n" transform="matrix(1,0,0,1,580,875) translate(27.788888888888884 27.11111111111111)"/><path d="M575 935.62h75.9v23.92H575z" fill="#fff" fill-opacity="0"/><use xlink:href="#l" transform="matrix(1,0,0,1,580,940.620765845103) translate(0 10.844444444444445)"/><use xlink:href="#m" transform="matrix(1,0,0,1,580,940.620765845103) translate(0 27.11111111111111)"/><use xlink:href="#o" transform="matrix(1,0,0,1,580,940.620765845103) translate(27.788888888888884 27.11111111111111)"/><path d="M749.02 871.6h75.9v23.94h-75.9z" fill="#fff" fill-opacity="0"/><use xlink:href="#l" transform="matrix(1,0,0,1,754.0199999999998,876.6140186807613) translate(0 10.844444444444445)"/><use xlink:href="#m" transform="matrix(1,0,0,1,754.0199999999998,876.6140186807613) translate(0 27.11111111111111)"/><use xlink:href="#n" transform="matrix(1,0,0,1,754.0199999999998,876.6140186807613) translate(27.788888888888884 27.11111111111111)"/><path d="M749.02 937.23h75.9v23.93h-75.9z" fill="#fff" fill-opacity="0"/><use xlink:href="#l" transform="matrix(1,0,0,1,754.0199999999998,942.2347845258644) translate(0 10.844444444444445)"/><use xlink:href="#m" transform="matrix(1,0,0,1,754.0199999999998,942.2347845258644) translate(0 27.11111111111111)"/><use xlink:href="#o" transform="matrix(1,0,0,1,754.0199999999998,942.2347845258644) translate(27.788888888888884 27.11111111111111)"/><path d="M1315 871.6h75.9v23.94H1315z" fill="#fff" fill-opacity="0"/><use xlink:href="#l" transform="matrix(1,0,0,1,1320,876.6140186807613) translate(0 10.844444444444445)"/><use xlink:href="#m" transform="matrix(1,0,0,1,1320,876.6140186807613) translate(0 27.11111111111111)"/><use xlink:href="#n" transform="matrix(1,0,0,1,1320,876.6140186807613) translate(27.788888888888884 27.11111111111111)"/><path d="M1315 937.23h75.9v23.93H1315z" fill="#fff" fill-opacity="0"/><use xlink:href="#l" transform="matrix(1,0,0,1,1320,942.2347845258644) translate(0 10.844444444444445)"/><use xlink:href="#m" transform="matrix(1,0,0,1,1320,942.2347845258644) translate(0 27.11111111111111)"/><use xlink:href="#o" transform="matrix(1,0,0,1,1320,942.2347845258644) translate(27.788888888888884 27.11111111111111)"/><path d="M1485 871.6h75.9v23.94H1485z" fill="#fff" fill-opacity="0"/><use xlink:href="#l" transform="matrix(1,0,0,1,1490,876.6140186807613) translate(0 10.844444444444445)"/><use xlink:href="#m" transform="matrix(1,0,0,1,1490,876.6140186807613) translate(0 27.11111111111111)"/><use xlink:href="#n" transform="matrix(1,0,0,1,1490,876.6140186807613) translate(27.788888888888884 27.11111111111111)"/><path d="M1485 937.23h75.9v23.93H1485z" fill="#fff" fill-opacity="0"/><g><use xlink:href="#l" transform="matrix(1,0,0,1,1490,942.2347845258644) translate(0 10.844444444444445)"/><use xlink:href="#m" transform="matrix(1,0,0,1,1490,942.2347845258644) translate(0 27.11111111111111)"/><use xlink:href="#o" transform="matrix(1,0,0,1,1490,942.2347845258644) translate(27.788888888888884 27.11111111111111)"/></g><path d="M1146.02 870h75.9v23.92h-75.9z" fill="#fff" fill-opacity="0"/><g><use xlink:href="#k" transform="matrix(1,0,0,1,1151.018,875) translate(0 10.844444444444445)"/></g><path d="M981.02 865.62h75.9v23.92h-75.9z" fill="#fff" fill-opacity="0"/><g><use xlink:href="#j" transform="matrix(1,0,0,1,986.0180000000001,870.620765845103) translate(0 10.844444444444445)"/></g><path d="M200 699v-28M200 698.97V700M200 671.03V670M524.48 671v28M524.48 671.03V670M524.48 698.97V700M361.22 671v28M361.22 671.03V670M361.22 698.97V700" stroke="#5e5e5e" stroke-width="2" fill="none"/><defs><path d="M127-220V0H93v-220H8v-28h204v28h-85" id="p"/><path d="M100-194c63 0 86 42 84 106H49c0 40 14 67 53 68 26 1 43-12 49-29l28 8c-11 28-37 45-77 45C44 4 14-33 15-96c1-61 26-98 85-98zm52 81c6-60-76-77-97-28-3 7-6 17-6 28h103" id="q"/><path d="M117-194c89-4 53 116 60 194h-32v-121c0-31-8-49-39-48C34-167 62-67 57 0H25l-1-190h30c1 10-1 24 2 32 11-22 29-35 61-36" id="r"/><path d="M141-36C126-15 110 5 73 4 37 3 15-17 15-53c-1-64 63-63 125-63 3-35-9-54-41-54-24 1-41 7-42 31l-33-3c5-37 33-52 76-52 45 0 72 20 72 64v82c-1 20 7 32 28 27v20c-31 9-61-2-59-35zM48-53c0 20 12 33 32 33 41-3 63-29 60-74-43 2-92-5-92 41" id="s"/><path d="M59-47c-2 24 18 29 38 22v24C64 9 27 4 27-40v-127H5v-23h24l9-43h21v43h35v23H59v120" id="t"/><g id="a"><use transform="matrix(0.05,0,0,0.05,0,0)" xlink:href="#p"/><use transform="matrix(0.05,0,0,0.05,8.950000000000001,0)" xlink:href="#q"/><use transform="matrix(0.05,0,0,0.05,18.950000000000003,0)" xlink:href="#r"/><use transform="matrix(0.05,0,0,0.05,28.950000000000003,0)" xlink:href="#s"/><use transform="matrix(0.05,0,0,0.05,38.95,0)" xlink:href="#r"/><use transform="matrix(0.05,0,0,0.05,48.95,0)" xlink:href="#t"/></g><path d="M233-177c-1 41-23 64-60 70L243 0h-38l-65-103H63V0H30v-248c88 3 205-21 203 71zM63-129c60-2 137 13 137-47 0-61-80-42-137-45v92" id="u"/><path d="M100-194c62-1 85 37 85 99 1 63-27 99-86 99S16-35 15-95c0-66 28-99 85-99zM99-20c44 1 53-31 53-75 0-43-8-75-51-75s-53 32-53 75 10 74 51 75" id="v"/><g id="b"><use transform="matrix(0.05,0,0,0.05,0,0)" xlink:href="#u"/><use transform="matrix(0.05,0,0,0.05,12.950000000000001,0)" xlink:href="#v"/><use transform="matrix(0.05,0,0,0.05,22.950000000000003,0)" xlink:href="#v"/><use transform="matrix(0.05,0,0,0.05,32.95,0)" xlink:href="#t"/></g><path d="M212-179c-10-28-35-45-73-45-59 0-87 40-87 99 0 60 29 101 89 101 43 0 62-24 78-52l27 14C228-24 195 4 139 4 59 4 22-46 18-125c-6-104 99-153 187-111 19 9 31 26 39 46" id="w"/><path d="M135-143c-3-34-86-38-87 0 15 53 115 12 119 90S17 21 10-45l28-5c4 36 97 45 98 0-10-56-113-15-118-90-4-57 82-63 122-42 12 7 21 19 24 35" id="x"/><g id="c"><use transform="matrix(0.05,0,0,0.05,0,0)" xlink:href="#w"/><use transform="matrix(0.05,0,0,0.05,12.950000000000001,0)" xlink:href="#v"/><use transform="matrix(0.05,0,0,0.05,22.950000000000003,0)" xlink:href="#r"/><use transform="matrix(0.05,0,0,0.05,32.95,0)" xlink:href="#t"/><use transform="matrix(0.05,0,0,0.05,37.95,0)" xlink:href="#v"/><use transform="matrix(0.05,0,0,0.05,47.95,0)" xlink:href="#x"/><use transform="matrix(0.05,0,0,0.05,56.95,0)" xlink:href="#v"/></g><path d="M240 0l2-218c-23 76-54 145-80 218h-23L58-218 59 0H30v-248h44l77 211c21-75 51-140 76-211h43V0h-30" id="y"/><path d="M177-190C167-65 218 103 67 71c-23-6-38-20-44-43l32-5c15 47 100 32 89-28v-30C133-14 115 1 83 1 29 1 15-40 15-95c0-56 16-97 71-98 29-1 48 16 59 35 1-10 0-23 2-32h30zM94-22c36 0 50-32 50-73 0-42-14-75-50-75-39 0-46 34-46 75s6 73 46 73" id="z"/><path d="M210-169c-67 3-38 105-44 169h-31v-121c0-29-5-50-35-48C34-165 62-65 56 0H25l-1-190h30c1 10-1 24 2 32 10-44 99-50 107 0 11-21 27-35 58-36 85-2 47 119 55 194h-31v-121c0-29-5-49-35-48" id="A"/><g id="d"><use transform="matrix(0.05,0,0,0.05,0,0)" xlink:href="#y"/><use transform="matrix(0.05,0,0,0.05,14.950000000000001,0)" xlink:href="#s"/><use transform="matrix(0.05,0,0,0.05,24.950000000000003,0)" xlink:href="#r"/><use transform="matrix(0.05,0,0,0.05,34.95,0)" xlink:href="#s"/><use transform="matrix(0.05,0,0,0.05,44.95,0)" xlink:href="#z"/><use transform="matrix(0.05,0,0,0.05,54.95,0)" xlink:href="#q"/><use transform="matrix(0.05,0,0,0.05,64.95,0)" xlink:href="#A"/><use transform="matrix(0.05,0,0,0.05,79.9,0)" xlink:href="#q"/><use transform="matrix(0.05,0,0,0.05,89.9,0)" xlink:href="#r"/><use transform="matrix(0.05,0,0,0.05,99.9,0)" xlink:href="#t"/></g><path d="M96-169c-40 0-48 33-48 73s9 75 48 75c24 0 41-14 43-38l32 2c-6 37-31 61-74 61-59 0-76-41-82-99-10-93 101-131 147-64 4 7 5 14 7 22l-32 3c-4-21-16-35-41-35" id="B"/><path d="M24-231v-30h32v30H24zM24 0v-190h32V0H24" id="C"/><path d="M108 0H70L1-190h34L89-25l56-165h34" id="D"/><path d="M179-190L93 31C79 59 56 82 12 73V49c39 6 53-20 64-50L1-190h34L92-34l54-156h33" id="E"/><g id="e"><use transform="matrix(0.05,0,0,0.05,0,0)" xlink:href="#w"/><use transform="matrix(0.05,0,0,0.05,12.950000000000001,0)" xlink:href="#v"/><use transform="matrix(0.05,0,0,0.05,22.950000000000003,0)" xlink:href="#r"/><use transform="matrix(0.05,0,0,0.05,32.95,0)" xlink:href="#r"/><use transform="matrix(0.05,0,0,0.05,42.95,0)" xlink:href="#q"/><use transform="matrix(0.05,0,0,0.05,52.95,0)" xlink:href="#B"/><use transform="matrix(0.05,0,0,0.05,61.95,0)" xlink:href="#t"/><use transform="matrix(0.05,0,0,0.05,66.95,0)" xlink:href="#C"/><use transform="matrix(0.05,0,0,0.05,70.9,0)" xlink:href="#D"/><use transform="matrix(0.05,0,0,0.05,79.9,0)" xlink:href="#C"/><use transform="matrix(0.05,0,0,0.05,83.85000000000001,0)" xlink:href="#t"/><use transform="matrix(0.05,0,0,0.05,88.85000000000001,0)" xlink:href="#E"/></g><path d="M30-248c87 1 191-15 191 75 0 78-77 80-158 76V0H30v-248zm33 125c57 0 124 11 124-50 0-59-68-47-124-48v98" id="F"/><path d="M114-163C36-179 61-72 57 0H25l-1-190h30c1 12-1 29 2 39 6-27 23-49 58-41v29" id="G"/><path d="M85-194c31 0 48 13 60 33l-1-100h32l1 261h-30c-2-10 0-23-3-31C134-8 116 4 85 4 32 4 16-35 15-94c0-66 23-100 70-100zm9 24c-40 0-46 34-46 75 0 40 6 74 45 74 42 0 51-32 51-76 0-42-9-74-50-73" id="H"/><path d="M84 4C-5 8 30-112 23-190h32v120c0 31 7 50 39 49 72-2 45-101 50-169h31l1 190h-30c-1-10 1-25-2-33-11 22-28 36-60 37" id="I"/><g id="f"><use transform="matrix(0.05,0,0,0.05,0,0)" xlink:href="#F"/><use transform="matrix(0.05,0,0,0.05,12,0)" xlink:href="#G"/><use transform="matrix(0.05,0,0,0.05,17.95,0)" xlink:href="#v"/><use transform="matrix(0.05,0,0,0.05,27.950000000000003,0)" xlink:href="#H"/><use transform="matrix(0.05,0,0,0.05,37.95,0)" xlink:href="#I"/><use transform="matrix(0.05,0,0,0.05,47.95,0)" xlink:href="#B"/><use transform="matrix(0.05,0,0,0.05,56.95,0)" xlink:href="#t"/><use transform="matrix(0.05,0,0,0.05,61.95,0)" xlink:href="#C"/><use transform="matrix(0.05,0,0,0.05,65.9,0)" xlink:href="#v"/><use transform="matrix(0.05,0,0,0.05,75.9,0)" xlink:href="#r"/></g><path d="M190 0L58-211 59 0H30v-248h39L202-35l-2-213h31V0h-41" id="J"/><path d="M16-82v-28h88v28H16" id="K"/><g id="g"><use transform="matrix(0.05,0,0,0.05,0,0)" xlink:href="#J"/><use transform="matrix(0.05,0,0,0.05,12.950000000000001,0)" xlink:href="#v"/><use transform="matrix(0.05,0,0,0.05,22.950000000000003,0)" xlink:href="#r"/><use transform="matrix(0.05,0,0,0.05,32.95,0)" xlink:href="#K"/><use transform="matrix(0.05,0,0,0.05,38.900000000000006,0)" xlink:href="#F"/><use transform="matrix(0.05,0,0,0.05,50.900000000000006,0)" xlink:href="#G"/><use transform="matrix(0.05,0,0,0.05,56.85,0)" xlink:href="#v"/><use transform="matrix(0.05,0,0,0.05,66.85000000000001,0)" xlink:href="#H"/><use transform="matrix(0.05,0,0,0.05,76.85000000000001,0)" xlink:href="#I"/><use transform="matrix(0.05,0,0,0.05,86.85000000000001,0)" xlink:href="#B"/><use transform="matrix(0.05,0,0,0.05,95.85000000000001,0)" xlink:href="#t"/><use transform="matrix(0.05,0,0,0.05,100.85000000000001,0)" xlink:href="#C"/><use transform="matrix(0.05,0,0,0.05,104.80000000000001,0)" xlink:href="#v"/><use transform="matrix(0.05,0,0,0.05,114.80000000000001,0)" xlink:href="#r"/></g><path d="M30 0v-248h187v28H63v79h144v27H63v87h162V0H30" id="L"/><path d="M141 0L90-78 38 0H4l68-98-65-92h35l48 74 47-74h35l-64 92 68 98h-35" id="M"/><path d="M24 0v-261h32V0H24" id="N"/><g id="h"><use transform="matrix(0.05,0,0,0.05,0,0)" xlink:href="#L"/><use transform="matrix(0.05,0,0,0.05,12,0)" xlink:href="#M"/><use transform="matrix(0.05,0,0,0.05,21,0)" xlink:href="#t"/><use transform="matrix(0.05,0,0,0.05,26,0)" xlink:href="#q"/><use transform="matrix(0.05,0,0,0.05,36,0)" xlink:href="#G"/><use transform="matrix(0.05,0,0,0.05,41.95,0)" xlink:href="#r"/><use transform="matrix(0.05,0,0,0.05,51.95,0)" xlink:href="#s"/><use transform="matrix(0.05,0,0,0.05,61.95,0)" xlink:href="#N"/></g><path d="M115-194c55 1 70 41 70 98S169 2 115 4C84 4 66-9 55-30l1 105H24l-1-265h31l2 30c10-21 28-34 59-34zm-8 174c40 0 45-34 45-75s-6-73-45-74c-42 0-51 32-51 76 0 43 10 73 51 73" id="O"/><g id="i"><use transform="matrix(0.05,0,0,0.05,0,0)" xlink:href="#w"/><use transform="matrix(0.05,0,0,0.05,12.950000000000001,0)" xlink:href="#v"/><use transform="matrix(0.05,0,0,0.05,22.950000000000003,0)" xlink:href="#G"/><use transform="matrix(0.05,0,0,0.05,28.900000000000002,0)" xlink:href="#O"/></g><g id="j"><use transform="matrix(0.03765432098765432,0,0,0.03765432098765432,0,0)" xlink:href="#y"/><use transform="matrix(0.03765432098765432,0,0,0.03765432098765432,11.258641975308642,0)" xlink:href="#s"/><use transform="matrix(0.03765432098765432,0,0,0.03765432098765432,18.789506172839506,0)" xlink:href="#r"/><use transform="matrix(0.03765432098765432,0,0,0.03765432098765432,26.32037037037037,0)" xlink:href="#s"/><use transform="matrix(0.03765432098765432,0,0,0.03765432098765432,33.85123456790123,0)" xlink:href="#z"/><use transform="matrix(0.03765432098765432,0,0,0.03765432098765432,41.38209876543208,0)" xlink:href="#q"/><use transform="matrix(0.03765432098765432,0,0,0.03765432098765432,48.91296296296295,0)" xlink:href="#A"/><use transform="matrix(0.03765432098765432,0,0,0.03765432098765432,60.17160493827159,0)" xlink:href="#q"/><use transform="matrix(0.03765432098765432,0,0,0.03765432098765432,67.70246913580246,0)" xlink:href="#r"/><use transform="matrix(0.03765432098765432,0,0,0.03765432098765432,75.23333333333332,0)" xlink:href="#t"/></g><g id="k"><use transform="matrix(0.03765432098765432,0,0,0.03765432098765432,0,0)" xlink:href="#w"/><use transform="matrix(0.03765432098765432,0,0,0.03765432098765432,9.752469135802468,0)" xlink:href="#v"/><use transform="matrix(0.03765432098765432,0,0,0.03765432098765432,17.28333333333333,0)" xlink:href="#r"/><use transform="matrix(0.03765432098765432,0,0,0.03765432098765432,24.814197530864195,0)" xlink:href="#r"/><use transform="matrix(0.03765432098765432,0,0,0.03765432098765432,32.34506172839506,0)" xlink:href="#q"/><use transform="matrix(0.03765432098765432,0,0,0.03765432098765432,39.875925925925934,0)" xlink:href="#B"/><use transform="matrix(0.03765432098765432,0,0,0.03765432098765432,46.653703703703705,0)" xlink:href="#t"/><use transform="matrix(0.03765432098765432,0,0,0.03765432098765432,50.41913580246913,0)" xlink:href="#C"/><use transform="matrix(0.03765432098765432,0,0,0.03765432098765432,53.39382716049383,0)" xlink:href="#D"/><use transform="matrix(0.03765432098765432,0,0,0.03765432098765432,60.17160493827161,0)" xlink:href="#C"/><use transform="matrix(0.03765432098765432,0,0,0.03765432098765432,63.1462962962963,0)" xlink:href="#t"/><use transform="matrix(0.03765432098765432,0,0,0.03765432098765432,66.91172839506173,0)" xlink:href="#E"/></g><path d="M160-131c35 5 61 23 61 61C221 17 115-2 30 0v-248c76 3 177-17 177 60 0 33-19 50-47 57zm-97-11c50-1 110 9 110-42 0-47-63-36-110-37v79zm0 115c55-2 124 14 124-45 0-56-70-42-124-44v89" id="P"/><g id="l"><use transform="matrix(0.03765432098765432,0,0,0.03765432098765432,0,0)" xlink:href="#P"/><use transform="matrix(0.03765432098765432,0,0,0.03765432098765432,9.037037037037036,0)" xlink:href="#I"/><use transform="matrix(0.03765432098765432,0,0,0.03765432098765432,16.5679012345679,0)" xlink:href="#x"/><use transform="matrix(0.03765432098765432,0,0,0.03765432098765432,23.345679012345677,0)" xlink:href="#C"/><use transform="matrix(0.03765432098765432,0,0,0.03765432098765432,26.32037037037037,0)" xlink:href="#r"/><use transform="matrix(0.03765432098765432,0,0,0.03765432098765432,33.85123456790123,0)" xlink:href="#q"/><use transform="matrix(0.03765432098765432,0,0,0.03765432098765432,41.38209876543208,0)" xlink:href="#x"/><use transform="matrix(0.03765432098765432,0,0,0.03765432098765432,48.15987654320987,0)" xlink:href="#x"/></g><path d="M232-93c-1 65-40 97-104 97C67 4 28-28 28-90v-158h33c8 89-33 224 67 224 102 0 64-133 71-224h33v155" id="Q"/><g id="m"><use transform="matrix(0.03765432098765432,0,0,0.03765432098765432,0,0)" xlink:href="#Q"/><use transform="matrix(0.03765432098765432,0,0,0.03765432098765432,9.752469135802468,0)" xlink:href="#r"/><use transform="matrix(0.03765432098765432,0,0,0.03765432098765432,17.28333333333333,0)" xlink:href="#C"/><use transform="matrix(0.03765432098765432,0,0,0.03765432098765432,20.258024691358024,0)" xlink:href="#t"/></g><path d="M27 0v-27h64v-190l-56 39v-29l58-41h29v221h61V0H27" id="R"/><use transform="matrix(0.03765432098765432,0,0,0.03765432098765432,0,0)" xlink:href="#R" id="n"/><path d="M101-251c82-7 93 87 43 132L82-64C71-53 59-42 53-27h129V0H18c2-99 128-94 128-182 0-28-16-43-45-43s-46 15-49 41l-32-3c6-41 34-60 81-64" id="S"/><use transform="matrix(0.03765432098765432,0,0,0.03765432098765432,0,0)" xlink:href="#S" id="o"/></defs></g></svg>