<svg xmlns="http://www.w3.org/2000/svg" xmlns:xlink="http://www.w3.org/1999/xlink" xmlns:lucid="lucid" width="1367.4" height="920"><g transform="translate(-113.6 -260)" lucid:page-tab-id="0_0"><path d="M0 0h1760v1360H0z" fill="#fff"/><path d="M214.96 340H160v100h80v-75l-25.04-25zm20 95h-70v-90h47.52v22.5h22.48V435z" stroke="#000" stroke-opacity="0" fill="#2a3282"/><path d="M177.52 380h44.96v5h-44.96v-5zM177.52 392.5h44.96v5h-44.96v-5zM177.52 405h44.96v5h-44.96v-5zM177.52 417.5h44.96v5h-44.96v-5z" stroke="#000" stroke-opacity="0" fill="#2a3282"/><path d="M240 340v100h-80V340h80z" stroke="#000" stroke-opacity="0" fill-opacity="0"/><use xlink:href="#a" transform="matrix(1,0,0,1,130,449) translate(29.074999999999996 14.4)"/><use xlink:href="#b" transform="matrix(1,0,0,1,130,449) translate(5.599999999999994 36)"/><use xlink:href="#c" transform="matrix(1,0,0,1,130,449) translate(98.5 36)"/><path d="M400 286c0-3.3 2.7-6 6-6h848c3.3 0 6 2.7 6 6v868c0 3.3-2.7 6-6 6H406c-3.3 0-6-2.7-6-6z" stroke="#fff" stroke-width="3" fill="#99d2f2" fill-opacity=".34"/><path d="M420 286c0-3.3 2.7-6 6-6h388c3.3 0 6 2.7 6 6v48c0 3.3-2.7 6-6 6H426c-3.3 0-6-2.7-6-6z" fill="none"/><use xlink:href="#d" transform="matrix(1,0,0,1,420,280) translate(35.13888888888897 34)"/><use xlink:href="#e" transform="matrix(1,0,0,1,420,280) translate(96.13888888888894 34)"/><use xlink:href="#f" transform="matrix(1,0,0,1,420,280) translate(200.41666666666669 34)"/><use xlink:href="#g" transform="matrix(1,0,0,1,420,280) translate(262.52777777777777 34)"/><use xlink:href="#h" transform="matrix(1,0,0,1,420,280) translate(301.6944444444444 34)"/><path d="M750 366c0-3.3 2.7-6 6-6h128c3.3 0 6 2.7 6 6v78c0 3.3-2.7 6-6 6H756c-3.3 0-6-2.7-6-6z" stroke="#5e5e5e" stroke-width="3" fill="#fff"/><use xlink:href="#i" transform="matrix(1,0,0,1,755,365) translate(50.80246913580247 30.27777777777778)"/><use xlink:href="#j" transform="matrix(1,0,0,1,755,365) translate(12.037037037037038 56.94444444444445)"/><path d="M241 400h480.5M241.03 400H240" stroke="#5e5e5e" stroke-width="2" fill="none"/><path d="M736.76 400l-14.26 4.64v-9.28z" stroke="#5e5e5e" stroke-width="2" fill="#5e5e5e"/><path d="M540 579c0-3.3 2.7-6 6-6h128c3.3 0 6 2.7 6 6v78c0 3.3-2.7 6-6 6H546c-3.3 0-6-2.7-6-6z" stroke="#5e5e5e" stroke-width="3" fill="#fff"/><use xlink:href="#k" transform="matrix(1,0,0,1,545,578) translate(16.327160493827158 45.27777777777778)"/><path d="M940 579c0-3.3 2.7-6 6-6h128c3.3 0 6 2.7 6 6v78c0 3.3-2.7 6-6 6H946c-3.3 0-6-2.7-6-6z" stroke="#5e5e5e" stroke-width="3" fill="#fff"/><use xlink:href="#l" transform="matrix(1,0,0,1,945,578) translate(16.358024691358025 45.27777777777778)"/><use xlink:href="#m" transform="matrix(1,0,0,1,945,578) translate(93.95061728395062 45.27777777777778)"/><path d="M820 454v33c0 3.3 2.7 6 6 6h178c3.3 0 6 2.7 6 6v55.5M820 454.03V453" stroke="#5e5e5e" stroke-width="2" fill="none"/><path d="M1010 569.76l-4.64-14.26h9.28z" stroke="#5e5e5e" stroke-width="2" fill="#5e5e5e"/><path d="M820 454v33c0 3.3-2.7 6-6 6H616c-3.3 0-6 2.7-6 6v55.5M820 454.03V453" stroke="#5e5e5e" stroke-width="2" fill="none"/><path d="M610 569.76l-4.64-14.26h9.28z" stroke="#5e5e5e" stroke-width="2" fill="#5e5e5e"/><path d="M871 791c0-3.3 2.7-6 6-6h128c3.3 0 6 2.7 6 6v78c0 3.3-2.7 6-6 6H877c-3.3 0-6-2.7-6-6z" stroke="#5e5e5e" stroke-width="3" fill="#fff"/><use xlink:href="#n" transform="matrix(1,0,0,1,876,790) translate(40.98765432098766 30.27777777777778)"/><use xlink:href="#o" transform="matrix(1,0,0,1,876,790) translate(11.97530864197531 56.94444444444445)"/><path d="M1063 791c0-3.3 2.7-6 6-6h128c3.3 0 6 2.7 6 6v78c0 3.3-2.7 6-6 6h-128c-3.3 0-6-2.7-6-6z" stroke="#5e5e5e" stroke-width="3" fill="#fff"/><use xlink:href="#o" transform="matrix(1,0,0,1,1068,790) translate(11.97530864197531 45.27777777777778)"/><path d="M1009 665v54c0 3.3-2.7 6-6 6h-67c-3.3 0-6 2.7-6 6v36.5M1009 665.03V664" stroke="#5e5e5e" stroke-width="2" fill="none"/><path d="M930 782.76l-4.64-14.26h9.28z" stroke="#5e5e5e" stroke-width="2" fill="#5e5e5e"/><path d="M1009 669v50c0 3.3 2.7 6 6 6h109c3.3 0 6 2.7 6 6v35.5M1009 669.03V668" stroke="#5e5e5e" stroke-width="2" fill="none"/><path d="M1130 781.76l-4.64-14.26h9.28z" stroke="#5e5e5e" stroke-width="2" fill="#5e5e5e"/><path d="M510.84 943.4c2.88-2.64 2.88-6.96 0-9.6l-12.64-11.82c-2.88-2.64-7.52-2.64-10.4 0l-12.64 11.82c-2.88 2.64-2.88 6.96 0 9.6l11.12 10.38v19.98L493 980l5.84-5.4v-.06l3.4-3.18-3.4-3.18 3.4-3.12-3.4-3.18 3.4-3.12-3.4-3.18v-.96l12-11.22zM493 924.86c2.32-.06 4.2 1.68 4.24 3.78.04 2.16-1.8 3.9-4.08 3.96H493c-2.32-.06-4.12-1.8-4.08-3.96.04-2.1 1.84-3.78 4.08-3.78z" stroke="#000" stroke-opacity="0" stroke-width="3" fill="#fcd116"/><path d="M489.42 972.75l2.62 2.4V956l-2.62-1.2z" stroke="#000" stroke-opacity="0" stroke-width="3" fill="#ff8c00" fill-opacity=".4"/><path d="M480.57 936.34h24.05v3.22h-24.05zm0 5.23h24.05v3.2h-24.05z" stroke="#000" stroke-opacity="0" stroke-width="3" fill="#fff" fill-opacity=".5"/><path d="M688.84 943.4c2.88-2.64 2.88-6.96 0-9.6l-12.64-11.82c-2.88-2.64-7.52-2.64-10.4 0l-12.64 11.82c-2.88 2.64-2.88 6.96 0 9.6l11.12 10.38v19.98L671 980l5.84-5.4v-.06l3.4-3.18-3.4-3.18 3.4-3.12-3.4-3.18 3.4-3.12-3.4-3.18v-.96l12-11.22zM671 924.86c2.32-.06 4.2 1.68 4.24 3.78.04 2.16-1.8 3.9-4.08 3.96H671c-2.32-.06-4.12-1.8-4.08-3.96.04-2.1 1.84-3.78 4.08-3.78z" stroke="#000" stroke-opacity="0" stroke-width="3" fill="#fcd116"/><path d="M667.42 972.75l2.62 2.4V956l-2.62-1.2z" stroke="#000" stroke-opacity="0" stroke-width="3" fill="#ff8c00" fill-opacity=".4"/><path d="M658.57 936.34h24.05v3.22h-24.05zm0 5.23h24.05v3.2h-24.05z" stroke="#000" stroke-opacity="0" stroke-width="3" fill="#fff" fill-opacity=".5"/><path d="M1100.84 943.4c2.88-2.64 2.88-6.96 0-9.6l-12.64-11.82c-2.88-2.64-7.52-2.64-10.4 0l-12.64 11.82c-2.88 2.64-2.88 6.96 0 9.6l11.12 10.38v19.98L1083 980l5.84-5.4v-.06l3.4-3.18-3.4-3.18 3.4-3.12-3.4-3.18 3.4-3.12-3.4-3.18v-.96l12-11.22zM1083 924.86c2.32-.06 4.2 1.68 4.24 3.78.04 2.16-1.8 3.9-4.08 3.96h-.16c-2.32-.06-4.12-1.8-4.08-3.96.04-2.1 1.84-3.78 4.08-3.78z" stroke="#000" stroke-opacity="0" stroke-width="3" fill="#fcd116"/><path d="M1079.42 972.75l2.62 2.4V956l-2.62-1.2z" stroke="#000" stroke-opacity="0" stroke-width="3" fill="#ff8c00" fill-opacity=".4"/><path d="M1070.57 936.34h24.05v3.22h-24.05zm0 5.23h24.05v3.2h-24.05z" stroke="#000" stroke-opacity="0" stroke-width="3" fill="#fff" fill-opacity=".5"/><path d="M909.84 1023.4c2.88-2.64 2.88-6.96 0-9.6l-12.64-11.82c-2.88-2.64-7.52-2.64-10.4 0l-12.64 11.82c-2.88 2.64-2.88 6.96 0 9.6l11.12 10.38v19.98L892 1060l5.84-5.4v-.06l3.4-3.18-3.4-3.18 3.4-3.12-3.4-3.18 3.4-3.12-3.4-3.18v-.96l12-11.22zM892 1004.86c2.32-.06 4.2 1.68 4.24 3.78.04 2.16-1.8 3.9-4.08 3.96H892c-2.32-.06-4.12-1.8-4.08-3.96.04-2.1 1.84-3.78 4.08-3.78z" stroke="#000" stroke-opacity="0" stroke-width="3" fill="#fcd116"/><path d="M888.42 1052.75l2.62 2.4V1036l-2.62-1.2z" stroke="#000" stroke-opacity="0" stroke-width="3" fill="#ff8c00" fill-opacity=".4"/><path d="M879.57 1016.34h24.05v3.22h-24.05zm0 5.23h24.05v3.2h-24.05z" stroke="#000" stroke-opacity="0" stroke-width="3" fill="#fff" fill-opacity=".5"/><path d="M911.84 1103.4c2.88-2.64 2.88-6.96 0-9.6l-12.64-11.82c-2.88-2.64-7.52-2.64-10.4 0l-12.64 11.82c-2.88 2.64-2.88 6.96 0 9.6l11.12 10.38v19.98L894 1140l5.84-5.4v-.06l3.4-3.18-3.4-3.18 3.4-3.12-3.4-3.18 3.4-3.12-3.4-3.18v-.96l12-11.22zM894 1084.86c2.32-.06 4.2 1.68 4.24 3.78.04 2.16-1.8 3.9-4.08 3.96H894c-2.32-.06-4.12-1.8-4.08-3.96.04-2.1 1.84-3.78 4.08-3.78z" stroke="#000" stroke-opacity="0" stroke-width="3" fill="#fcd116"/><path d="M890.42 1132.75l2.62 2.4V1116l-2.62-1.2z" stroke="#000" stroke-opacity="0" stroke-width="3" fill="#ff8c00" fill-opacity=".4"/><path d="M881.57 1096.34h24.05v3.22h-24.05zm0 5.23h24.05v3.2h-24.05z" stroke="#000" stroke-opacity="0" stroke-width="3" fill="#fff" fill-opacity=".5"/><path d="M471 791c0-3.3 2.7-6 6-6h128c3.3 0 6 2.7 6 6v78c0 3.3-2.7 6-6 6H477c-3.3 0-6-2.7-6-6z" stroke="#5e5e5e" stroke-width="3" fill="#fff"/><use xlink:href="#n" transform="matrix(1,0,0,1,476,790) translate(40.98765432098766 30.27777777777778)"/><use xlink:href="#o" transform="matrix(1,0,0,1,476,790) translate(11.97530864197531 56.94444444444445)"/><path d="M654 791c0-3.3 2.7-6 6-6h128c3.3 0 6 2.7 6 6v78c0 3.3-2.7 6-6 6H660c-3.3 0-6-2.7-6-6z" stroke="#5e5e5e" stroke-width="3" fill="#fff"/><use xlink:href="#o" transform="matrix(1,0,0,1,659,790) translate(11.97530864197531 45.27777777777778)"/><path d="M609 665v54c0 3.3-2.7 6-6 6h-67c-3.3 0-6 2.7-6 6v36.5M609 665.03V664" stroke="#5e5e5e" stroke-width="2" fill="none"/><path d="M530 782.76l-4.64-14.26h9.28z" stroke="#5e5e5e" stroke-width="2" fill="#5e5e5e"/><path d="M609 669v50c0 3.3 2.7 6 6 6h109c3.3 0 6 2.7 6 6v35.5M609 669.03V668" stroke="#5e5e5e" stroke-width="2" fill="none"/><path d="M730 781.76l-4.64-14.26h9.28z" stroke="#5e5e5e" stroke-width="2" fill="#5e5e5e"/><path d="M510.84 1023.4c2.88-2.64 2.88-6.96 0-9.6l-12.64-11.82c-2.88-2.64-7.52-2.64-10.4 0l-12.64 11.82c-2.88 2.64-2.88 6.96 0 9.6l11.12 10.38v19.98L493 1060l5.84-5.4v-.06l3.4-3.18-3.4-3.18 3.4-3.12-3.4-3.18 3.4-3.12-3.4-3.18v-.96l12-11.22zM493 1004.86c2.32-.06 4.2 1.68 4.24 3.78.04 2.16-1.8 3.9-4.08 3.96H493c-2.32-.06-4.12-1.8-4.08-3.96.04-2.1 1.84-3.78 4.08-3.78z" stroke="#000" stroke-opacity="0" stroke-width="3" fill="#fcd116"/><path d="M489.42 1052.75l2.62 2.4V1036l-2.62-1.2z" stroke="#000" stroke-opacity="0" stroke-width="3" fill="#ff8c00" fill-opacity=".4"/><path d="M480.57 1016.34h24.05v3.22h-24.05zm0 5.23h24.05v3.2h-24.05z" stroke="#000" stroke-opacity="0" stroke-width="3" fill="#fff" fill-opacity=".5"/><path d="M907.84 943.4c2.88-2.64 2.88-6.96 0-9.6l-12.64-11.82c-2.88-2.64-7.52-2.64-10.4 0l-12.64 11.82c-2.88 2.64-2.88 6.96 0 9.6l11.12 10.38v19.98L890 980l5.84-5.4v-.06l3.4-3.18-3.4-3.18 3.4-3.12-3.4-3.18 3.4-3.12-3.4-3.18v-.96l12-11.22zM890 924.86c2.32-.06 4.2 1.68 4.24 3.78.04 2.16-1.8 3.9-4.08 3.96H890c-2.32-.06-4.12-1.8-4.08-3.96.04-2.1 1.84-3.78 4.08-3.78z" stroke="#000" stroke-opacity="0" stroke-width="3" fill="#fcd116"/><path d="M886.42 972.75l2.62 2.4V956l-2.62-1.2z" stroke="#000" stroke-opacity="0" stroke-width="3" fill="#ff8c00" fill-opacity=".4"/><path d="M877.57 936.34h24.05v3.22h-24.05zm0 5.23h24.05v3.2h-24.05z" stroke="#000" stroke-opacity="0" stroke-width="3" fill="#fff" fill-opacity=".5"/><path d="M433 919c0-3.3 2.7-6 6-6h228c3.3 0 6 2.7 6 6v62c0 3.3-2.7 6-6 6H439c-3.3 0-6-2.7-6-6z" stroke="#000" stroke-opacity="0" stroke-width="3" fill="#fff" fill-opacity="0"/><use xlink:href="#p" transform="matrix(1,0,0,1,438,918) translate(92.35802469135803 26.22222222222222)"/><use xlink:href="#q" transform="matrix(1,0,0,1,438,918) translate(71.17283950617283 47.55555555555555)"/><path d="M436 999c0-3.3 2.7-6 6-6h228c3.3 0 6 2.7 6 6v62c0 3.3-2.7 6-6 6H442c-3.3 0-6-2.7-6-6z" stroke="#000" stroke-opacity="0" stroke-width="3" fill="#fff" fill-opacity="0"/><use xlink:href="#r" transform="matrix(1,0,0,1,441,998) translate(74.08641975308643 26.22222222222222)"/><use xlink:href="#s" transform="matrix(1,0,0,1,441,998) translate(71.17283950617283 47.55555555555555)"/><path d="M603 926c0-3.3 2.7-6 6-6h228c3.3 0 6 2.7 6 6v48c0 3.3-2.7 6-6 6H609c-3.3 0-6-2.7-6-6z" stroke="#000" stroke-opacity="0" stroke-width="3" fill="#fff" fill-opacity="0"/><use xlink:href="#p" transform="matrix(1,0,0,1,608,925) translate(92.35802469135803 17.34722222222222)"/><use xlink:href="#t" transform="matrix(1,0,0,1,608,925) translate(90.38271604938272 38.68055555555556)"/><path d="M617 1009c0-3.3 2.7-6 6-6h228c3.3 0 6 2.7 6 6v62c0 3.3-2.7 6-6 6H623c-3.3 0-6-2.7-6-6z" stroke="#000" stroke-opacity="0" stroke-width="3" fill="#fff" fill-opacity="0"/><use xlink:href="#u" transform="matrix(1,0,0,1,622,1008) translate(74.08641975308643 14.222222222222221)"/><use xlink:href="#t" transform="matrix(1,0,0,1,622,1008) translate(90.38271604938272 35.55555555555556)"/><path d="M688.84 1023.4c2.88-2.64 2.88-6.96 0-9.6l-12.64-11.82c-2.88-2.64-7.52-2.64-10.4 0l-12.64 11.82c-2.88 2.64-2.88 6.96 0 9.6l11.12 10.38v19.98L671 1060l5.84-5.4v-.06l3.4-3.18-3.4-3.18 3.4-3.12-3.4-3.18 3.4-3.12-3.4-3.18v-.96l12-11.22zM671 1004.86c2.32-.06 4.2 1.68 4.24 3.78.04 2.16-1.8 3.9-4.08 3.96H671c-2.32-.06-4.12-1.8-4.08-3.96.04-2.1 1.84-3.78 4.08-3.78z" stroke="#000" stroke-opacity="0" stroke-width="3" fill="#fcd116"/><path d="M667.42 1052.75l2.62 2.4V1036l-2.62-1.2z" stroke="#000" stroke-opacity="0" stroke-width="3" fill="#ff8c00" fill-opacity=".4"/><path d="M658.57 1016.34h24.05v3.22h-24.05zm0 5.23h24.05v3.2h-24.05z" stroke="#000" stroke-opacity="0" stroke-width="3" fill="#fff" fill-opacity=".5"/><path d="M840 926c0-3.3 2.7-6 6-6h228c3.3 0 6 2.7 6 6v62c0 3.3-2.7 6-6 6H846c-3.3 0-6-2.7-6-6z" stroke="#000" stroke-opacity="0" stroke-width="3" fill="#fff" fill-opacity="0"/><use xlink:href="#v" transform="matrix(1,0,0,1,845,925) translate(86.38271604938272 14.222222222222221)"/><use xlink:href="#w" transform="matrix(1,0,0,1,845,925) translate(80.97530864197532 35.55555555555556)"/><use xlink:href="#q" transform="matrix(1,0,0,1,845,925) translate(71.17283950617283 56.888888888888886)"/><path d="M848 1006c0-3.3 2.7-6 6-6h228c3.3 0 6 2.7 6 6v48c0 3.3-2.7 6-6 6H854c-3.3 0-6-2.7-6-6z" stroke="#000" stroke-opacity="0" stroke-width="3" fill="#fff" fill-opacity="0"/><use xlink:href="#x" transform="matrix(1,0,0,1,853,1005) translate(66.67901234567904 17.34722222222222)"/><use xlink:href="#q" transform="matrix(1,0,0,1,853,1005) translate(71.17283950617283 38.68055555555556)"/><path d="M849 1086c0-3.3 2.7-6 6-6h228c3.3 0 6 2.7 6 6v48c0 3.3-2.7 6-6 6H855c-3.3 0-6-2.7-6-6z" stroke="#000" stroke-opacity="0" stroke-width="3" fill="#fff" fill-opacity="0"/><use xlink:href="#y" transform="matrix(1,0,0,1,854,1085) translate(79.93827160493828 17.34722222222222)"/><use xlink:href="#q" transform="matrix(1,0,0,1,854,1085) translate(71.17283950617283 38.68055555555556)"/><path d="M1100.84 1023.4c2.88-2.64 2.88-6.96 0-9.6l-12.64-11.82c-2.88-2.64-7.52-2.64-10.4 0l-12.64 11.82c-2.88 2.64-2.88 6.96 0 9.6l11.12 10.38v19.98l6.72 6.24 5.84-5.4v-.06l3.4-3.18-3.4-3.18 3.4-3.12-3.4-3.18 3.4-3.12-3.4-3.18v-.96l12-11.22zm-17.84-18.54c2.32-.06 4.2 1.68 4.24 3.78.04 2.16-1.8 3.9-4.08 3.96h-.16c-2.32-.06-4.12-1.8-4.08-3.96.04-2.1 1.84-3.78 4.08-3.78z" stroke="#000" stroke-opacity="0" stroke-width="3" fill="#fcd116"/><path d="M1079.42 1052.75l2.62 2.4V1036l-2.62-1.2z" stroke="#000" stroke-opacity="0" stroke-width="3" fill="#ff8c00" fill-opacity=".4"/><path d="M1070.57 1016.34h24.05v3.22h-24.05zm0 5.23h24.05v3.2h-24.05z" stroke="#000" stroke-opacity="0" stroke-width="3" fill="#fff" fill-opacity=".5"/><path d="M1031 926c0-3.3 2.7-6 6-6h228c3.3 0 6 2.7 6 6v62c0 3.3-2.7 6-6 6h-228c-3.3 0-6-2.7-6-6z" stroke="#000" stroke-opacity="0" stroke-width="3" fill="#fff" fill-opacity="0"/><use xlink:href="#v" transform="matrix(1,0,0,1,1036,925) translate(86.38271604938272 14.222222222222221)"/><use xlink:href="#z" transform="matrix(1,0,0,1,1036,925) translate(80.97530864197532 35.55555555555556)"/><use xlink:href="#A" transform="matrix(1,0,0,1,1036,925) translate(90.38271604938272 56.888888888888886)"/><path d="M1035 1006c0-3.3 2.7-6 6-6h228c3.3 0 6 2.7 6 6v48c0 3.3-2.7 6-6 6h-228c-3.3 0-6-2.7-6-6z" stroke="#000" stroke-opacity="0" stroke-width="3" fill="#fff" fill-opacity="0"/><use xlink:href="#x" transform="matrix(1,0,0,1,1040,1005) translate(66.67901234567904 17.34722222222222)"/><use xlink:href="#t" transform="matrix(1,0,0,1,1040,1005) translate(90.38271604938272 38.68055555555556)"/><path d="M400 526c0-3.3 2.7-6 6-6h848c3.3 0 6 2.7 6 6v168c0 3.3-2.7 6-6 6H406c-3.3 0-6-2.7-6-6z" stroke="#fff" stroke-width="3" fill="#ffdba9" fill-opacity=".34"/><path d="M400 706c0-3.3 2.7-6 6-6h848c3.3 0 6 2.7 6 6v188c0 3.3-2.7 6-6 6H406c-3.3 0-6-2.7-6-6z" stroke="#fff" stroke-width="3" fill="#a3d977" fill-opacity=".34"/><path d="M400 906c0-3.3 2.7-6 6-6h848c3.3 0 6 2.7 6 6v248c0 3.3-2.7 6-6 6H406c-3.3 0-6-2.7-6-6z" stroke="#fff" stroke-width="3" fill="#d1bcd2" fill-opacity=".34"/><path d="M440 1019V821M440 1018.97v1.03M440 821.03V820M440 820h28M440.03 820H439M467.97 820H469M441 1020h18M441.03 1020H440M458.97 1020H460M441 940h18M441.03 940H440M458.97 940H460M841 1019V821M841 1018.97v1.03M841 821.03V820M841 820h28M841.03 820H840M868.97 820H870M842 940h18M842.03 940H841M859.97 940H861M841 1020h18M841.03 1020H840M858.97 1020H860M841 1021v78M841 1021.03V1020M841 1098.97v1.03M841 1100h18M841.03 1100H840M858.97 1100H860M1034 1019V821M1034 1018.97v1.03M1034 821.03V820M1034 820h28M1034.03 820H1033M1061.97 820h1.03M1035 940h18M1035.03 940H1034M1052.97 940h1.03M1034 1020h18M1034.03 1020H1033M1051.97 1020h1.03M624 1019V821M624 1018.97v1.03M624 821.03V820M624 820h28M624.03 820H623M651.97 820H653M625 940h18M625.03 940H624M642.97 940H644M624 1020h18M624.03 1020H623M641.97 1020H643" stroke="#5e5e5e" stroke-width="2" fill="none"/><path d="M1290 546c0-3.3 2.7-6 6-6h68c3.3 0 6 2.7 6 6v148c0 3.3-2.7 6-6 6h-68c-3.3 0-6-2.7-6-6z" fill="none"/><path d="M1290 700c5.52 0 10-4.48 10-10v-60c0-5.52 4.48-10 10-10-5.52 0-10-4.48-10-10v-60c0-5.52-4.48-10-10-10" stroke="#5e5e5e" stroke-width="3" fill="none"/><g><use xlink:href="#B" transform="matrix(1,0,0,1,1325,545) translate(0 66.11111111111111)"/><use xlink:href="#C" transform="matrix(1,0,0,1,1325,545) translate(0 92.77777777777777)"/></g><path d="M1293 726c0-3.3 2.7-6 6-6h68c3.3 0 6 2.7 6 6v148c0 3.3-2.7 6-6 6h-68c-3.3 0-6-2.7-6-6z" fill="none"/><path d="M1293 880c5.52 0 10-4.48 10-10v-60c0-5.52 4.48-10 10-10-5.52 0-10-4.48-10-10v-60c0-5.52-4.48-10-10-10" stroke="#5e5e5e" stroke-width="3" fill="none"/><g><use xlink:href="#D" transform="matrix(1,0,0,1,1328,725) translate(0 66.11111111111111)"/><use xlink:href="#E" transform="matrix(1,0,0,1,1328,725) translate(0 92.77777777777777)"/></g><path d="M1292 906c0-3.3 2.7-6 6-6h68c3.3 0 6 2.7 6 6v248c0 3.3-2.7 6-6 6h-68c-3.3 0-6-2.7-6-6z" fill="none"/><path d="M1292 1160c5.52 0 10-4.48 10-10v-110c0-5.52 4.48-10 10-10-5.52 0-10-4.48-10-10V910c0-5.52-4.48-10-10-10" stroke="#5e5e5e" stroke-width="3" fill="none"/><g><use xlink:href="#D" transform="matrix(1,0,0,1,1327,905) translate(0 116.11111111111111)"/><use xlink:href="#F" transform="matrix(1,0,0,1,1327,905) translate(0 142.7777777777778)"/></g><defs><path d="M30 0v-248h187v28H63v79h144v27H63v87h162V0H30" id="G"/><path d="M117-194c89-4 53 116 60 194h-32v-121c0-31-8-49-39-48C34-167 62-67 57 0H25l-1-190h30c1 10-1 24 2 32 11-22 29-35 61-36" id="H"/><path d="M59-47c-2 24 18 29 38 22v24C64 9 27 4 27-40v-127H5v-23h24l9-43h21v43h35v23H59v120" id="I"/><path d="M100-194c63 0 86 42 84 106H49c0 40 14 67 53 68 26 1 43-12 49-29l28 8c-11 28-37 45-77 45C44 4 14-33 15-96c1-61 26-98 85-98zm52 81c6-60-76-77-97-28-3 7-6 17-6 28h103" id="J"/><path d="M114-163C36-179 61-72 57 0H25l-1-190h30c1 12-1 29 2 39 6-27 23-49 58-41v29" id="K"/><path d="M115-194c55 1 70 41 70 98S169 2 115 4C84 4 66-9 55-30l1 105H24l-1-265h31l2 30c10-21 28-34 59-34zm-8 174c40 0 45-34 45-75s-6-73-45-74c-42 0-51 32-51 76 0 43 10 73 51 73" id="L"/><path d="M24-231v-30h32v30H24zM24 0v-190h32V0H24" id="M"/><path d="M135-143c-3-34-86-38-87 0 15 53 115 12 119 90S17 21 10-45l28-5c4 36 97 45 98 0-10-56-113-15-118-90-4-57 82-63 122-42 12 7 21 19 24 35" id="N"/><g id="a"><use transform="matrix(0.05,0,0,0.05,0,0)" xlink:href="#G"/><use transform="matrix(0.05,0,0,0.05,12,0)" xlink:href="#H"/><use transform="matrix(0.05,0,0,0.05,22,0)" xlink:href="#I"/><use transform="matrix(0.05,0,0,0.05,27,0)" xlink:href="#J"/><use transform="matrix(0.05,0,0,0.05,37,0)" xlink:href="#K"/><use transform="matrix(0.05,0,0,0.05,42.95,0)" xlink:href="#L"/><use transform="matrix(0.05,0,0,0.05,52.95,0)" xlink:href="#K"/><use transform="matrix(0.05,0,0,0.05,58.900000000000006,0)" xlink:href="#M"/><use transform="matrix(0.05,0,0,0.05,62.85,0)" xlink:href="#N"/><use transform="matrix(0.05,0,0,0.05,71.85000000000001,0)" xlink:href="#J"/></g><path d="M205 0l-28-72H64L36 0H1l101-248h38L239 0h-34zm-38-99l-47-123c-12 45-31 82-46 123h93" id="O"/><path d="M177-190C167-65 218 103 67 71c-23-6-38-20-44-43l32-5c15 47 100 32 89-28v-30C133-14 115 1 83 1 29 1 15-40 15-95c0-56 16-97 71-98 29-1 48 16 59 35 1-10 0-23 2-32h30zM94-22c36 0 50-32 50-73 0-42-14-75-50-75-39 0-46 34-46 75s6 73 46 73" id="P"/><path d="M210-169c-67 3-38 105-44 169h-31v-121c0-29-5-50-35-48C34-165 62-65 56 0H25l-1-190h30c1 10-1 24 2 32 10-44 99-50 107 0 11-21 27-35 58-36 85-2 47 119 55 194h-31v-121c0-29-5-49-35-48" id="Q"/><g id="b"><use transform="matrix(0.05,0,0,0.05,0,0)" xlink:href="#O"/><use transform="matrix(0.05,0,0,0.05,12,0)" xlink:href="#P"/><use transform="matrix(0.05,0,0,0.05,22,0)" xlink:href="#K"/><use transform="matrix(0.05,0,0,0.05,27.950000000000003,0)" xlink:href="#J"/><use transform="matrix(0.05,0,0,0.05,37.95,0)" xlink:href="#J"/><use transform="matrix(0.05,0,0,0.05,47.95,0)" xlink:href="#Q"/><use transform="matrix(0.05,0,0,0.05,62.900000000000006,0)" xlink:href="#J"/><use transform="matrix(0.05,0,0,0.05,72.9,0)" xlink:href="#H"/><use transform="matrix(0.05,0,0,0.05,82.9,0)" xlink:href="#I"/></g><path d="M87 75C49 33 22-17 22-94c0-76 28-126 65-167h31c-38 41-64 92-64 168S80 34 118 75H87" id="R"/><path d="M33-261c38 41 65 92 65 168S71 34 33 75H2C39 34 66-17 66-93S39-220 2-261h31" id="S"/><g id="c"><use transform="matrix(0.05,0,0,0.05,0,0)" xlink:href="#R"/><use transform="matrix(0.05,0,0,0.05,5.95,0)" xlink:href="#G"/><use transform="matrix(0.05,0,0,0.05,17.95,0)" xlink:href="#O"/><use transform="matrix(0.05,0,0,0.05,29.950000000000003,0)" xlink:href="#S"/></g><path fill="#0c7cba" d="M199 0l-22-63H83L61 0H9l90-248h61L250 0h-51zm-33-102l-36-108c-10 38-24 72-36 108h72" id="T"/><path fill="#0c7cba" d="M12 0v-35l95-120H19v-35h142v35L67-36h103V0H12" id="U"/><path fill="#0c7cba" d="M85 4C-2 5 27-109 22-190h50c7 57-23 150 33 157 60-5 35-97 40-157h50l1 190h-47c-2-12 1-28-3-38-12 25-28 42-61 42" id="V"/><path fill="#0c7cba" d="M135-150c-39-12-60 13-60 57V0H25l-1-190h47c2 13-1 29 3 40 6-28 27-53 61-41v41" id="W"/><path fill="#0c7cba" d="M185-48c-13 30-37 53-82 52C43 2 14-33 14-96s30-98 90-98c62 0 83 45 84 108H66c0 31 8 55 39 56 18 0 30-7 34-22zm-45-69c5-46-57-63-70-21-2 6-4 13-4 21h74" id="X"/><g id="d"><use transform="matrix(0.05555555555555554,0,0,0.05555555555555554,0,0)" xlink:href="#T"/><use transform="matrix(0.05555555555555554,0,0,0.05555555555555554,14.388888888888884,0)" xlink:href="#U"/><use transform="matrix(0.05555555555555554,0,0,0.05555555555555554,24.38888888888888,0)" xlink:href="#V"/><use transform="matrix(0.05555555555555554,0,0,0.05555555555555554,36.55555555555554,0)" xlink:href="#W"/><use transform="matrix(0.05555555555555554,0,0,0.05555555555555554,44.333333333333314,0)" xlink:href="#X"/></g><path fill="#0c7cba" d="M24 0v-248h195v40H76v63h132v40H76v65h150V0H24" id="Y"/><path fill="#0c7cba" d="M135-194c87-1 58 113 63 194h-50c-7-57 23-157-34-157-59 0-34 97-39 157H25l-1-190h47c2 12-1 28 3 38 12-26 28-41 61-42" id="Z"/><path fill="#0c7cba" d="M115-3C79 11 28 4 28-45v-112H4v-33h27l15-45h31v45h36v33H77v99c-1 23 16 31 38 25v30" id="aa"/><path fill="#0c7cba" d="M135-194c53 0 70 44 70 98 0 56-19 98-73 100-31 1-45-17-59-34 3 33 2 69 2 105H25l-1-265h48c2 10 0 23 3 31 11-24 29-35 60-35zM114-30c33 0 39-31 40-66 0-38-9-64-40-64-56 0-55 130 0 130" id="ab"/><path fill="#0c7cba" d="M25-224v-37h50v37H25zM25 0v-190h50V0H25" id="ac"/><path fill="#0c7cba" d="M137-138c1-29-70-34-71-4 15 46 118 7 119 86 1 83-164 76-172 9l43-7c4 19 20 25 44 25 33 8 57-30 24-41C81-84 22-81 20-136c-2-80 154-74 161-7" id="ad"/><g id="e"><use transform="matrix(0.05555555555555554,0,0,0.05555555555555554,0,0)" xlink:href="#Y"/><use transform="matrix(0.05555555555555554,0,0,0.05555555555555554,13.333333333333329,0)" xlink:href="#Z"/><use transform="matrix(0.05555555555555554,0,0,0.05555555555555554,25.499999999999993,0)" xlink:href="#aa"/><use transform="matrix(0.05555555555555554,0,0,0.05555555555555554,32.1111111111111,0)" xlink:href="#X"/><use transform="matrix(0.05555555555555554,0,0,0.05555555555555554,43.22222222222221,0)" xlink:href="#W"/><use transform="matrix(0.05555555555555554,0,0,0.05555555555555554,50.999999999999986,0)" xlink:href="#ab"/><use transform="matrix(0.05555555555555554,0,0,0.05555555555555554,63.16666666666665,0)" xlink:href="#W"/><use transform="matrix(0.05555555555555554,0,0,0.05555555555555554,70.94444444444443,0)" xlink:href="#ac"/><use transform="matrix(0.05555555555555554,0,0,0.05555555555555554,76.49999999999999,0)" xlink:href="#ad"/><use transform="matrix(0.05555555555555554,0,0,0.05555555555555554,87.61111111111109,0)" xlink:href="#X"/></g><path fill="#0c7cba" d="M24-248c93 1 206-16 204 79-1 75-69 88-152 82V0H24v-248zm52 121c47 0 100 7 100-41 0-47-54-39-100-39v80" id="ae"/><path fill="#0c7cba" d="M110-194c64 0 96 36 96 99 0 64-35 99-97 99-61 0-95-36-95-99 0-62 34-99 96-99zm-1 164c35 0 45-28 45-65 0-40-10-65-43-65-34 0-45 26-45 65 0 36 10 65 43 65" id="af"/><path fill="#0c7cba" d="M133-34C117-15 103 5 69 4 32 3 11-16 11-54c-1-60 55-63 116-61 1-26-3-47-28-47-18 1-26 9-28 27l-52-2c7-38 36-58 82-57s74 22 75 68l1 82c-1 14 12 18 25 15v27c-30 8-71 5-69-32zm-48 3c29 0 43-24 42-57-32 0-66-3-65 30 0 17 8 27 23 27" id="ag"/><path fill="#0c7cba" d="M25 0v-261h50V0H25" id="ah"/><g id="f"><use transform="matrix(0.05555555555555554,0,0,0.05555555555555554,0,0)" xlink:href="#ae"/><use transform="matrix(0.05555555555555554,0,0,0.05555555555555554,13.333333333333329,0)" xlink:href="#af"/><use transform="matrix(0.05555555555555554,0,0,0.05555555555555554,25.499999999999993,0)" xlink:href="#W"/><use transform="matrix(0.05555555555555554,0,0,0.05555555555555554,33.27777777777777,0)" xlink:href="#aa"/><use transform="matrix(0.05555555555555554,0,0,0.05555555555555554,39.88888888888888,0)" xlink:href="#ag"/><use transform="matrix(0.05555555555555554,0,0,0.05555555555555554,50.999999999999986,0)" xlink:href="#ah"/></g><path fill="#0c7cba" d="M67-93c0 74 22 123 53 168H70C40 30 18-18 18-93s22-123 52-168h50c-32 44-53 94-53 168" id="ai"/><g id="g"><use transform="matrix(0.05555555555555554,0,0,0.05555555555555554,0,0)" xlink:href="#ai"/><use transform="matrix(0.05555555555555554,0,0,0.05555555555555554,6.611111111111109,0)" xlink:href="#Y"/><use transform="matrix(0.05555555555555554,0,0,0.05555555555555554,19.944444444444436,0)" xlink:href="#T"/></g><path fill="#0c7cba" d="M102-93c0 74-22 123-52 168H0C30 29 54-18 53-93c0-74-22-123-53-168h50c30 45 52 94 52 168" id="aj"/><g id="h"><use transform="matrix(0.05555555555555554,0,0,0.05555555555555554,0,0)" xlink:href="#ae"/><use transform="matrix(0.05555555555555554,0,0,0.05555555555555554,13.333333333333329,0)" xlink:href="#af"/><use transform="matrix(0.05555555555555554,0,0,0.05555555555555554,25.499999999999993,0)" xlink:href="#W"/><use transform="matrix(0.05555555555555554,0,0,0.05555555555555554,33.27777777777777,0)" xlink:href="#aa"/><use transform="matrix(0.05555555555555554,0,0,0.05555555555555554,39.88888888888888,0)" xlink:href="#ag"/><use transform="matrix(0.05555555555555554,0,0,0.05555555555555554,50.999999999999986,0)" xlink:href="#ah"/><use transform="matrix(0.05555555555555554,0,0,0.05555555555555554,56.55555555555554,0)" xlink:href="#aj"/></g><path fill="#333" d="M30 0v-248h187v28H63v79h144v27H63v87h162V0H30" id="ak"/><path fill="#333" d="M205 0l-28-72H64L36 0H1l101-248h38L239 0h-34zm-38-99l-47-123c-12 45-31 82-46 123h93" id="al"/><g id="i"><use transform="matrix(0.06172839506172839,0,0,0.06172839506172839,0,0)" xlink:href="#ak"/><use transform="matrix(0.06172839506172839,0,0,0.06172839506172839,14.814814814814813,0)" xlink:href="#al"/></g><path fill="#333" d="M117-194c89-4 53 116 60 194h-32v-121c0-31-8-49-39-48C34-167 62-67 57 0H25l-1-190h30c1 10-1 24 2 32 11-22 29-35 61-36" id="am"/><path fill="#333" d="M114-163C36-179 61-72 57 0H25l-1-190h30c1 12-1 29 2 39 6-27 23-49 58-41v29" id="an"/><path fill="#333" d="M100-194c62-1 85 37 85 99 1 63-27 99-86 99S16-35 15-95c0-66 28-99 85-99zM99-20c44 1 53-31 53-75 0-43-8-75-51-75s-53 32-53 75 10 74 51 75" id="ao"/><path fill="#333" d="M24 0v-261h32V0H24" id="ap"/><path fill="#333" d="M210-169c-67 3-38 105-44 169h-31v-121c0-29-5-50-35-48C34-165 62-65 56 0H25l-1-190h30c1 10-1 24 2 32 10-44 99-50 107 0 11-21 27-35 58-36 85-2 47 119 55 194h-31v-121c0-29-5-49-35-48" id="aq"/><path fill="#333" d="M100-194c63 0 86 42 84 106H49c0 40 14 67 53 68 26 1 43-12 49-29l28 8c-11 28-37 45-77 45C44 4 14-33 15-96c1-61 26-98 85-98zm52 81c6-60-76-77-97-28-3 7-6 17-6 28h103" id="ar"/><path fill="#333" d="M59-47c-2 24 18 29 38 22v24C64 9 27 4 27-40v-127H5v-23h24l9-43h21v43h35v23H59v120" id="as"/><g id="j"><use transform="matrix(0.06172839506172839,0,0,0.06172839506172839,0,0)" xlink:href="#ak"/><use transform="matrix(0.06172839506172839,0,0,0.06172839506172839,14.814814814814813,0)" xlink:href="#am"/><use transform="matrix(0.06172839506172839,0,0,0.06172839506172839,27.160493827160494,0)" xlink:href="#an"/><use transform="matrix(0.06172839506172839,0,0,0.06172839506172839,34.50617283950617,0)" xlink:href="#ao"/><use transform="matrix(0.06172839506172839,0,0,0.06172839506172839,46.85185185185185,0)" xlink:href="#ap"/><use transform="matrix(0.06172839506172839,0,0,0.06172839506172839,51.72839506172839,0)" xlink:href="#ap"/><use transform="matrix(0.06172839506172839,0,0,0.06172839506172839,56.60493827160494,0)" xlink:href="#aq"/><use transform="matrix(0.06172839506172839,0,0,0.06172839506172839,75.06172839506172,0)" xlink:href="#ar"/><use transform="matrix(0.06172839506172839,0,0,0.06172839506172839,87.4074074074074,0)" xlink:href="#am"/><use transform="matrix(0.06172839506172839,0,0,0.06172839506172839,99.75308641975309,0)" xlink:href="#as"/></g><path fill="#333" d="M240 0l2-218c-23 76-54 145-80 218h-23L58-218 59 0H30v-248h44l77 211c21-75 51-140 76-211h43V0h-30" id="at"/><path fill="#333" d="M141-36C126-15 110 5 73 4 37 3 15-17 15-53c-1-64 63-63 125-63 3-35-9-54-41-54-24 1-41 7-42 31l-33-3c5-37 33-52 76-52 45 0 72 20 72 64v82c-1 20 7 32 28 27v20c-31 9-61-2-59-35zM48-53c0 20 12 33 32 33 41-3 63-29 60-74-43 2-92-5-92 41" id="au"/><path fill="#333" d="M143 0L79-87 56-68V0H24v-261h32v163l83-92h37l-77 82L181 0h-38" id="av"/><path fill="#333" d="M24-231v-30h32v30H24zM24 0v-190h32V0H24" id="aw"/><path fill="#333" d="M177-190C167-65 218 103 67 71c-23-6-38-20-44-43l32-5c15 47 100 32 89-28v-30C133-14 115 1 83 1 29 1 15-40 15-95c0-56 16-97 71-98 29-1 48 16 59 35 1-10 0-23 2-32h30zM94-22c36 0 50-32 50-73 0-42-14-75-50-75-39 0-46 34-46 75s6 73 46 73" id="ax"/><g id="k"><use transform="matrix(0.06172839506172839,0,0,0.06172839506172839,0,0)" xlink:href="#at"/><use transform="matrix(0.06172839506172839,0,0,0.06172839506172839,18.456790123456788,0)" xlink:href="#au"/><use transform="matrix(0.06172839506172839,0,0,0.06172839506172839,30.80246913580247,0)" xlink:href="#an"/><use transform="matrix(0.06172839506172839,0,0,0.06172839506172839,38.148148148148145,0)" xlink:href="#av"/><use transform="matrix(0.06172839506172839,0,0,0.06172839506172839,49.25925925925925,0)" xlink:href="#ar"/><use transform="matrix(0.06172839506172839,0,0,0.06172839506172839,61.60493827160493,0)" xlink:href="#as"/><use transform="matrix(0.06172839506172839,0,0,0.06172839506172839,67.77777777777777,0)" xlink:href="#aw"/><use transform="matrix(0.06172839506172839,0,0,0.06172839506172839,72.65432098765432,0)" xlink:href="#am"/><use transform="matrix(0.06172839506172839,0,0,0.06172839506172839,85,0)" xlink:href="#ax"/></g><path fill="#333" d="M212-179c-10-28-35-45-73-45-59 0-87 40-87 99 0 60 29 101 89 101 43 0 62-24 78-52l27 14C228-24 195 4 139 4 59 4 22-46 18-125c-6-104 99-153 187-111 19 9 31 26 39 46" id="ay"/><g id="l"><use transform="matrix(0.06172839506172839,0,0,0.06172839506172839,0,0)" xlink:href="#ay"/><use transform="matrix(0.06172839506172839,0,0,0.06172839506172839,15.987654320987653,0)" xlink:href="#ar"/><use transform="matrix(0.06172839506172839,0,0,0.06172839506172839,28.333333333333332,0)" xlink:href="#am"/><use transform="matrix(0.06172839506172839,0,0,0.06172839506172839,40.67901234567901,0)" xlink:href="#as"/><use transform="matrix(0.06172839506172839,0,0,0.06172839506172839,46.851851851851855,0)" xlink:href="#an"/><use transform="matrix(0.06172839506172839,0,0,0.06172839506172839,54.19753086419753,0)" xlink:href="#au"/><use transform="matrix(0.06172839506172839,0,0,0.06172839506172839,66.54320987654322,0)" xlink:href="#ap"/></g><path fill="#333" d="M33 0v-248h34V0H33" id="az"/><path fill="#333" d="M127-220V0H93v-220H8v-28h204v28h-85" id="aA"/><g id="m"><use transform="matrix(0.06172839506172839,0,0,0.06172839506172839,0,0)" xlink:href="#az"/><use transform="matrix(0.06172839506172839,0,0,0.06172839506172839,6.172839506172839,0)" xlink:href="#aA"/></g><path fill="#333" d="M190 0L58-211 59 0H30v-248h39L202-35l-2-213h31V0h-41" id="aB"/><path fill="#333" d="M16-82v-28h88v28H16" id="aC"/><g id="n"><use transform="matrix(0.06172839506172839,0,0,0.06172839506172839,0,0)" xlink:href="#aB"/><use transform="matrix(0.06172839506172839,0,0,0.06172839506172839,15.987654320987653,0)" xlink:href="#ao"/><use transform="matrix(0.06172839506172839,0,0,0.06172839506172839,28.333333333333332,0)" xlink:href="#am"/><use transform="matrix(0.06172839506172839,0,0,0.06172839506172839,40.67901234567901,0)" xlink:href="#aC"/></g><path fill="#333" d="M30-248c87 1 191-15 191 75 0 78-77 80-158 76V0H30v-248zm33 125c57 0 124 11 124-50 0-59-68-47-124-48v98" id="aD"/><path fill="#333" d="M85-194c31 0 48 13 60 33l-1-100h32l1 261h-30c-2-10 0-23-3-31C134-8 116 4 85 4 32 4 16-35 15-94c0-66 23-100 70-100zm9 24c-40 0-46 34-46 75 0 40 6 74 45 74 42 0 51-32 51-76 0-42-9-74-50-73" id="aE"/><path fill="#333" d="M84 4C-5 8 30-112 23-190h32v120c0 31 7 50 39 49 72-2 45-101 50-169h31l1 190h-30c-1-10 1-25-2-33-11 22-28 36-60 37" id="aF"/><path fill="#333" d="M96-169c-40 0-48 33-48 73s9 75 48 75c24 0 41-14 43-38l32 2c-6 37-31 61-74 61-59 0-76-41-82-99-10-93 101-131 147-64 4 7 5 14 7 22l-32 3c-4-21-16-35-41-35" id="aG"/><g id="o"><use transform="matrix(0.06172839506172839,0,0,0.06172839506172839,0,0)" xlink:href="#aD"/><use transform="matrix(0.06172839506172839,0,0,0.06172839506172839,14.814814814814813,0)" xlink:href="#an"/><use transform="matrix(0.06172839506172839,0,0,0.06172839506172839,22.160493827160494,0)" xlink:href="#ao"/><use transform="matrix(0.06172839506172839,0,0,0.06172839506172839,34.50617283950617,0)" xlink:href="#aE"/><use transform="matrix(0.06172839506172839,0,0,0.06172839506172839,46.85185185185185,0)" xlink:href="#aF"/><use transform="matrix(0.06172839506172839,0,0,0.06172839506172839,59.197530864197525,0)" xlink:href="#aG"/><use transform="matrix(0.06172839506172839,0,0,0.06172839506172839,70.30864197530863,0)" xlink:href="#as"/><use transform="matrix(0.06172839506172839,0,0,0.06172839506172839,76.48148148148147,0)" xlink:href="#aw"/><use transform="matrix(0.06172839506172839,0,0,0.06172839506172839,81.35802469135801,0)" xlink:href="#ao"/><use transform="matrix(0.06172839506172839,0,0,0.06172839506172839,93.7037037037037,0)" xlink:href="#am"/></g><path fill="#333" d="M233-177c-1 41-23 64-60 70L243 0h-38l-65-103H63V0H30v-248c88 3 205-21 203 71zM63-129c60-2 137 13 137-47 0-61-80-42-137-45v92" id="aH"/><g id="p"><use transform="matrix(0.049382716049382706,0,0,0.049382716049382706,0,0)" xlink:href="#aH"/><use transform="matrix(0.049382716049382706,0,0,0.049382716049382706,12.790123456790122,0)" xlink:href="#ar"/><use transform="matrix(0.049382716049382706,0,0,0.049382716049382706,22.666666666666664,0)" xlink:href="#as"/><use transform="matrix(0.049382716049382706,0,0,0.049382716049382706,27.60493827160494,0)" xlink:href="#au"/><use transform="matrix(0.049382716049382706,0,0,0.049382716049382706,37.48148148148148,0)" xlink:href="#aw"/><use transform="matrix(0.049382716049382706,0,0,0.049382716049382706,41.382716049382715,0)" xlink:href="#ap"/></g><path fill="#333" d="M87 75C49 33 22-17 22-94c0-76 28-126 65-167h31c-38 41-64 92-64 168S80 34 118 75H87" id="aI"/><path fill="#333" d="M33-261c38 41 65 92 65 168S71 34 33 75H2C39 34 66-17 66-93S39-220 2-261h31" id="aJ"/><g id="q"><use transform="matrix(0.049382716049382706,0,0,0.049382716049382706,0,0)" xlink:href="#aI"/><use transform="matrix(0.049382716049382706,0,0,0.049382716049382706,5.876543209876542,0)" xlink:href="#aB"/><use transform="matrix(0.049382716049382706,0,0,0.049382716049382706,18.666666666666664,0)" xlink:href="#ao"/><use transform="matrix(0.049382716049382706,0,0,0.049382716049382706,28.543209876543205,0)" xlink:href="#am"/><use transform="matrix(0.049382716049382706,0,0,0.049382716049382706,38.419753086419746,0)" xlink:href="#aC"/><use transform="matrix(0.049382716049382706,0,0,0.049382716049382706,44.29629629629629,0)" xlink:href="#aD"/><use transform="matrix(0.049382716049382706,0,0,0.049382716049382706,56.14814814814814,0)" xlink:href="#an"/><use transform="matrix(0.049382716049382706,0,0,0.049382716049382706,62.02469135802468,0)" xlink:href="#ao"/><use transform="matrix(0.049382716049382706,0,0,0.049382716049382706,71.90123456790123,0)" xlink:href="#aE"/><use transform="matrix(0.049382716049382706,0,0,0.049382716049382706,81.77777777777777,0)" xlink:href="#aJ"/></g><path fill="#333" d="M135-143c-3-34-86-38-87 0 15 53 115 12 119 90S17 21 10-45l28-5c4 36 97 45 98 0-10-56-113-15-118-90-4-57 82-63 122-42 12 7 21 19 24 35" id="aK"/><g id="r"><use transform="matrix(0.049382716049382706,0,0,0.049382716049382706,0,0)" xlink:href="#ay"/><use transform="matrix(0.049382716049382706,0,0,0.049382716049382706,12.790123456790122,0)" xlink:href="#ao"/><use transform="matrix(0.049382716049382706,0,0,0.049382716049382706,22.666666666666664,0)" xlink:href="#am"/><use transform="matrix(0.049382716049382706,0,0,0.049382716049382706,32.5432098765432,0)" xlink:href="#aK"/><use transform="matrix(0.049382716049382706,0,0,0.049382716049382706,41.43209876543209,0)" xlink:href="#aF"/><use transform="matrix(0.049382716049382706,0,0,0.049382716049382706,51.30864197530863,0)" xlink:href="#aq"/><use transform="matrix(0.049382716049382706,0,0,0.049382716049382706,66.07407407407406,0)" xlink:href="#ar"/><use transform="matrix(0.049382716049382706,0,0,0.049382716049382706,75.9506172839506,0)" xlink:href="#an"/></g><g id="s"><use transform="matrix(0.049382716049382706,0,0,0.049382716049382706,0,0)" xlink:href="#aI"/><use transform="matrix(0.049382716049382706,0,0,0.049382716049382706,5.876543209876542,0)" xlink:href="#aB"/><use transform="matrix(0.049382716049382706,0,0,0.049382716049382706,18.666666666666664,0)" xlink:href="#ao"/><use transform="matrix(0.049382716049382706,0,0,0.049382716049382706,28.543209876543205,0)" xlink:href="#am"/><use transform="matrix(0.049382716049382706,0,0,0.049382716049382706,38.419753086419746,0)" xlink:href="#aC"/><use transform="matrix(0.049382716049382706,0,0,0.049382716049382706,44.29629629629629,0)" xlink:href="#aD"/><use transform="matrix(0.049382716049382706,0,0,0.049382716049382706,56.14814814814814,0)" xlink:href="#an"/><use transform="matrix(0.049382716049382706,0,0,0.049382716049382706,62.02469135802468,0)" xlink:href="#ao"/><use transform="matrix(0.049382716049382706,0,0,0.049382716049382706,71.90123456790123,0)" xlink:href="#aE"/><use transform="matrix(0.049382716049382706,0,0,0.049382716049382706,81.77777777777777,0)" xlink:href="#aJ"/></g><g id="t"><use transform="matrix(0.049382716049382706,0,0,0.049382716049382706,0,0)" xlink:href="#aI"/><use transform="matrix(0.049382716049382706,0,0,0.049382716049382706,5.876543209876542,0)" xlink:href="#aD"/><use transform="matrix(0.049382716049382706,0,0,0.049382716049382706,17.728395061728392,0)" xlink:href="#an"/><use transform="matrix(0.049382716049382706,0,0,0.049382716049382706,23.604938271604933,0)" xlink:href="#ao"/><use transform="matrix(0.049382716049382706,0,0,0.049382716049382706,33.481481481481474,0)" xlink:href="#aE"/><use transform="matrix(0.049382716049382706,0,0,0.049382716049382706,43.35802469135801,0)" xlink:href="#aJ"/></g><g id="u"><use transform="matrix(0.049382716049382706,0,0,0.049382716049382706,0,0)" xlink:href="#ay"/><use transform="matrix(0.049382716049382706,0,0,0.049382716049382706,12.790123456790122,0)" xlink:href="#ao"/><use transform="matrix(0.049382716049382706,0,0,0.049382716049382706,22.666666666666664,0)" xlink:href="#am"/><use transform="matrix(0.049382716049382706,0,0,0.049382716049382706,32.5432098765432,0)" xlink:href="#aK"/><use transform="matrix(0.049382716049382706,0,0,0.049382716049382706,41.43209876543209,0)" xlink:href="#aF"/><use transform="matrix(0.049382716049382706,0,0,0.049382716049382706,51.30864197530863,0)" xlink:href="#aq"/><use transform="matrix(0.049382716049382706,0,0,0.049382716049382706,66.07407407407406,0)" xlink:href="#ar"/><use transform="matrix(0.049382716049382706,0,0,0.049382716049382706,75.9506172839506,0)" xlink:href="#an"/></g><path fill="#333" d="M185-189c-5-48-123-54-124 2 14 75 158 14 163 119 3 78-121 87-175 55-17-10-28-26-33-46l33-7c5 56 141 63 141-1 0-78-155-14-162-118-5-82 145-84 179-34 5 7 8 16 11 25" id="aL"/><path fill="#333" d="M106-169C34-169 62-67 57 0H25v-261h32l-1 103c12-21 28-36 61-36 89 0 53 116 60 194h-32v-121c2-32-8-49-39-48" id="aM"/><g id="v"><use transform="matrix(0.049382716049382706,0,0,0.049382716049382706,0,0)" xlink:href="#aL"/><use transform="matrix(0.049382716049382706,0,0,0.049382716049382706,11.85185185185185,0)" xlink:href="#aM"/><use transform="matrix(0.049382716049382706,0,0,0.049382716049382706,21.728395061728392,0)" xlink:href="#au"/><use transform="matrix(0.049382716049382706,0,0,0.049382716049382706,31.604938271604933,0)" xlink:href="#an"/><use transform="matrix(0.049382716049382706,0,0,0.049382716049382706,37.481481481481474,0)" xlink:href="#ar"/><use transform="matrix(0.049382716049382706,0,0,0.049382716049382706,47.35802469135801,0)" xlink:href="#aE"/></g><path fill="#333" d="M108 0H70L1-190h34L89-25l56-165h34" id="aN"/><g id="w"><use transform="matrix(0.049382716049382706,0,0,0.049382716049382706,0,0)" xlink:href="#aL"/><use transform="matrix(0.049382716049382706,0,0,0.049382716049382706,11.85185185185185,0)" xlink:href="#ar"/><use transform="matrix(0.049382716049382706,0,0,0.049382716049382706,21.728395061728392,0)" xlink:href="#an"/><use transform="matrix(0.049382716049382706,0,0,0.049382716049382706,27.604938271604933,0)" xlink:href="#aN"/><use transform="matrix(0.049382716049382706,0,0,0.049382716049382706,36.49382716049382,0)" xlink:href="#aw"/><use transform="matrix(0.049382716049382706,0,0,0.049382716049382706,40.395061728395056,0)" xlink:href="#aG"/><use transform="matrix(0.049382716049382706,0,0,0.049382716049382706,49.28395061728394,0)" xlink:href="#ar"/><use transform="matrix(0.049382716049382706,0,0,0.049382716049382706,59.16049382716048,0)" xlink:href="#aK"/></g><path fill="#333" d="M179-190L93 31C79 59 56 82 12 73V49c39 6 53-20 64-50L1-190h34L92-34l54-156h33" id="aO"/><g id="x"><use transform="matrix(0.049382716049382706,0,0,0.049382716049382706,0,0)" xlink:href="#ay"/><use transform="matrix(0.049382716049382706,0,0,0.049382716049382706,12.790123456790122,0)" xlink:href="#ao"/><use transform="matrix(0.049382716049382706,0,0,0.049382716049382706,22.666666666666664,0)" xlink:href="#am"/><use transform="matrix(0.049382716049382706,0,0,0.049382716049382706,32.5432098765432,0)" xlink:href="#am"/><use transform="matrix(0.049382716049382706,0,0,0.049382716049382706,42.419753086419746,0)" xlink:href="#ar"/><use transform="matrix(0.049382716049382706,0,0,0.049382716049382706,52.29629629629628,0)" xlink:href="#aG"/><use transform="matrix(0.049382716049382706,0,0,0.049382716049382706,61.185185185185176,0)" xlink:href="#as"/><use transform="matrix(0.049382716049382706,0,0,0.049382716049382706,66.12345679012344,0)" xlink:href="#aw"/><use transform="matrix(0.049382716049382706,0,0,0.049382716049382706,70.02469135802467,0)" xlink:href="#aN"/><use transform="matrix(0.049382716049382706,0,0,0.049382716049382706,78.91358024691355,0)" xlink:href="#aw"/><use transform="matrix(0.049382716049382706,0,0,0.049382716049382706,82.81481481481478,0)" xlink:href="#as"/><use transform="matrix(0.049382716049382706,0,0,0.049382716049382706,87.75308641975305,0)" xlink:href="#aO"/></g><path fill="#333" d="M115-194c53 0 69 39 70 98 0 66-23 100-70 100C84 3 66-7 56-30L54 0H23l1-261h32v101c10-23 28-34 59-34zm-8 174c40 0 45-34 45-75 0-40-5-75-45-74-42 0-51 32-51 76 0 43 10 73 51 73" id="aP"/><path fill="#333" d="M141 0L90-78 38 0H4l68-98-65-92h35l48 74 47-74h35l-64 92 68 98h-35" id="aQ"/><g id="y"><use transform="matrix(0.049382716049382706,0,0,0.049382716049382706,0,0)" xlink:href="#aL"/><use transform="matrix(0.049382716049382706,0,0,0.049382716049382706,11.85185185185185,0)" xlink:href="#au"/><use transform="matrix(0.049382716049382706,0,0,0.049382716049382706,21.728395061728392,0)" xlink:href="#am"/><use transform="matrix(0.049382716049382706,0,0,0.049382716049382706,31.604938271604933,0)" xlink:href="#aE"/><use transform="matrix(0.049382716049382706,0,0,0.049382716049382706,41.481481481481474,0)" xlink:href="#aP"/><use transform="matrix(0.049382716049382706,0,0,0.049382716049382706,51.35802469135801,0)" xlink:href="#ao"/><use transform="matrix(0.049382716049382706,0,0,0.049382716049382706,61.234567901234556,0)" xlink:href="#aQ"/></g><g id="z"><use transform="matrix(0.049382716049382706,0,0,0.049382716049382706,0,0)" xlink:href="#aL"/><use transform="matrix(0.049382716049382706,0,0,0.049382716049382706,11.85185185185185,0)" xlink:href="#ar"/><use transform="matrix(0.049382716049382706,0,0,0.049382716049382706,21.728395061728392,0)" xlink:href="#an"/><use transform="matrix(0.049382716049382706,0,0,0.049382716049382706,27.604938271604933,0)" xlink:href="#aN"/><use transform="matrix(0.049382716049382706,0,0,0.049382716049382706,36.49382716049382,0)" xlink:href="#aw"/><use transform="matrix(0.049382716049382706,0,0,0.049382716049382706,40.395061728395056,0)" xlink:href="#aG"/><use transform="matrix(0.049382716049382706,0,0,0.049382716049382706,49.28395061728394,0)" xlink:href="#ar"/><use transform="matrix(0.049382716049382706,0,0,0.049382716049382706,59.16049382716048,0)" xlink:href="#aK"/></g><g id="A"><use transform="matrix(0.049382716049382706,0,0,0.049382716049382706,0,0)" xlink:href="#aI"/><use transform="matrix(0.049382716049382706,0,0,0.049382716049382706,5.876543209876542,0)" xlink:href="#aD"/><use transform="matrix(0.049382716049382706,0,0,0.049382716049382706,17.728395061728392,0)" xlink:href="#an"/><use transform="matrix(0.049382716049382706,0,0,0.049382716049382706,23.604938271604933,0)" xlink:href="#ao"/><use transform="matrix(0.049382716049382706,0,0,0.049382716049382706,33.481481481481474,0)" xlink:href="#aE"/><use transform="matrix(0.049382716049382706,0,0,0.049382716049382706,43.35802469135801,0)" xlink:href="#aJ"/></g><path fill="#333" d="M30-248c118-7 216 8 213 122C240-48 200 0 122 0H30v-248zM63-27c89 8 146-16 146-99s-60-101-146-95v194" id="aR"/><path fill="#333" d="M115-194c55 1 70 41 70 98S169 2 115 4C84 4 66-9 55-30l1 105H24l-1-265h31l2 30c10-21 28-34 59-34zm-8 174c40 0 45-34 45-75s-6-73-45-74c-42 0-51 32-51 76 0 43 10 73 51 73" id="aS"/><g id="B"><use transform="matrix(0.06172839506172839,0,0,0.06172839506172839,0,0)" xlink:href="#aR"/><use transform="matrix(0.06172839506172839,0,0,0.06172839506172839,15.987654320987653,0)" xlink:href="#ar"/><use transform="matrix(0.06172839506172839,0,0,0.06172839506172839,28.333333333333332,0)" xlink:href="#aS"/><use transform="matrix(0.06172839506172839,0,0,0.06172839506172839,40.67901234567901,0)" xlink:href="#au"/><use transform="matrix(0.06172839506172839,0,0,0.06172839506172839,53.02469135802469,0)" xlink:href="#an"/><use transform="matrix(0.06172839506172839,0,0,0.06172839506172839,60.37037037037037,0)" xlink:href="#as"/><use transform="matrix(0.06172839506172839,0,0,0.06172839506172839,66.5432098765432,0)" xlink:href="#aq"/><use transform="matrix(0.06172839506172839,0,0,0.06172839506172839,84.99999999999999,0)" xlink:href="#ar"/><use transform="matrix(0.06172839506172839,0,0,0.06172839506172839,97.34567901234567,0)" xlink:href="#am"/><use transform="matrix(0.06172839506172839,0,0,0.06172839506172839,109.69135802469135,0)" xlink:href="#as"/><use transform="matrix(0.06172839506172839,0,0,0.06172839506172839,115.86419753086419,0)" xlink:href="#aK"/></g><path fill="#333" d="M140-251c81 0 123 46 123 126C263-46 219 4 140 4 59 4 17-45 17-125s42-126 123-126zm0 227c63 0 89-41 89-101s-29-99-89-99c-61 0-89 39-89 99S79-25 140-24" id="aT"/><g id="C"><use transform="matrix(0.06172839506172839,0,0,0.06172839506172839,0,0)" xlink:href="#aI"/><use transform="matrix(0.06172839506172839,0,0,0.06172839506172839,7.345679012345679,0)" xlink:href="#aT"/><use transform="matrix(0.06172839506172839,0,0,0.06172839506172839,24.629629629629626,0)" xlink:href="#aS"/><use transform="matrix(0.06172839506172839,0,0,0.06172839506172839,36.9753086419753,0)" xlink:href="#as"/><use transform="matrix(0.06172839506172839,0,0,0.06172839506172839,43.148148148148145,0)" xlink:href="#aw"/><use transform="matrix(0.06172839506172839,0,0,0.06172839506172839,48.02469135802469,0)" xlink:href="#ao"/><use transform="matrix(0.06172839506172839,0,0,0.06172839506172839,60.37037037037037,0)" xlink:href="#am"/><use transform="matrix(0.06172839506172839,0,0,0.06172839506172839,72.71604938271605,0)" xlink:href="#au"/><use transform="matrix(0.06172839506172839,0,0,0.06172839506172839,85.06172839506173,0)" xlink:href="#ap"/><use transform="matrix(0.06172839506172839,0,0,0.06172839506172839,89.93827160493828,0)" xlink:href="#aJ"/></g><path fill="#333" d="M9 0v-24l116-142H16v-24h144v24L44-24h123V0H9" id="aU"/><g id="D"><use transform="matrix(0.06172839506172839,0,0,0.06172839506172839,0,0)" xlink:href="#al"/><use transform="matrix(0.06172839506172839,0,0,0.06172839506172839,14.814814814814813,0)" xlink:href="#aU"/><use transform="matrix(0.06172839506172839,0,0,0.06172839506172839,25.925925925925924,0)" xlink:href="#aF"/><use transform="matrix(0.06172839506172839,0,0,0.06172839506172839,38.2716049382716,0)" xlink:href="#an"/><use transform="matrix(0.06172839506172839,0,0,0.06172839506172839,45.61728395061728,0)" xlink:href="#ar"/></g><g id="E"><use transform="matrix(0.06172839506172839,0,0,0.06172839506172839,0,0)" xlink:href="#al"/><use transform="matrix(0.06172839506172839,0,0,0.06172839506172839,14.814814814814813,0)" xlink:href="#aG"/><use transform="matrix(0.06172839506172839,0,0,0.06172839506172839,25.925925925925924,0)" xlink:href="#aG"/><use transform="matrix(0.06172839506172839,0,0,0.06172839506172839,37.03703703703704,0)" xlink:href="#ao"/><use transform="matrix(0.06172839506172839,0,0,0.06172839506172839,49.382716049382715,0)" xlink:href="#aF"/><use transform="matrix(0.06172839506172839,0,0,0.06172839506172839,61.72839506172839,0)" xlink:href="#am"/><use transform="matrix(0.06172839506172839,0,0,0.06172839506172839,74.07407407407408,0)" xlink:href="#as"/><use transform="matrix(0.06172839506172839,0,0,0.06172839506172839,80.24691358024691,0)" xlink:href="#aK"/></g><g id="F"><use transform="matrix(0.06172839506172839,0,0,0.06172839506172839,0,0)" xlink:href="#aL"/><use transform="matrix(0.06172839506172839,0,0,0.06172839506172839,14.814814814814813,0)" xlink:href="#aF"/><use transform="matrix(0.06172839506172839,0,0,0.06172839506172839,27.160493827160494,0)" xlink:href="#aP"/><use transform="matrix(0.06172839506172839,0,0,0.06172839506172839,39.50617283950617,0)" xlink:href="#aK"/><use transform="matrix(0.06172839506172839,0,0,0.06172839506172839,50.61728395061728,0)" xlink:href="#aG"/><use transform="matrix(0.06172839506172839,0,0,0.06172839506172839,61.72839506172839,0)" xlink:href="#an"/><use transform="matrix(0.06172839506172839,0,0,0.06172839506172839,69.07407407407408,0)" xlink:href="#aw"/><use transform="matrix(0.06172839506172839,0,0,0.06172839506172839,73.95061728395062,0)" xlink:href="#aS"/><use transform="matrix(0.06172839506172839,0,0,0.06172839506172839,86.2962962962963,0)" xlink:href="#as"/><use transform="matrix(0.06172839506172839,0,0,0.06172839506172839,92.46913580246914,0)" xlink:href="#aw"/><use transform="matrix(0.06172839506172839,0,0,0.06172839506172839,97.34567901234568,0)" xlink:href="#ao"/><use transform="matrix(0.06172839506172839,0,0,0.06172839506172839,109.69135802469137,0)" xlink:href="#am"/><use transform="matrix(0.06172839506172839,0,0,0.06172839506172839,122.03703703703705,0)" xlink:href="#aK"/></g></defs></g></svg>